<svg width="450" height="350" viewBox="0 0 450 350" fill="none" xmlns="http://www.w3.org/2000/svg">
<path d="M271.2 224.614C271.081 221.579 273.444 219.023 276.479 218.904C276.803 218.891 277.127 218.907 277.448 218.951L286.322 201.541L291.336 210.371L282.14 225.551C281.523 228.542 278.598 230.465 275.608 229.848C273.106 229.332 271.283 227.168 271.2 224.614Z" fill="#FFB7B7"/>
<path d="M312.572 334.249L305.608 334.248L302.295 307.386L312.573 307.386L312.572 334.249Z" fill="#FFB7B7"/>
<path d="M314.348 340.999L291.893 340.998V340.714C291.893 335.887 295.806 331.974 300.633 331.974H300.634L314.349 331.975L314.348 340.999Z" fill="#2F2E41"/>
<path d="M350.326 334.249L343.361 334.248L340.048 307.386L350.327 307.386L350.326 334.249Z" fill="#FFB7B7"/>
<path d="M352.102 340.999L329.646 340.998V340.714C329.646 335.887 333.559 331.974 338.386 331.974H338.387L352.102 331.975L352.102 340.999Z" fill="#2F2E41"/>
<path d="M281.897 209.461L278.856 214.528C278.856 214.528 283.924 214.528 284.937 222.129L288.991 217.061L281.897 209.461Z" fill="#E5E5E5"/>
<path d="M335.101 198.82C335.101 198.82 343.208 220.102 344.729 233.276C346.249 246.451 348.782 281.413 348.782 281.413L353.849 326.511L339.662 328.537L333.581 282.934L319.9 237.837L316.86 282.934L314.326 323.977L301.152 324.484L300.138 281.92L294.564 227.702L297.605 201.86L335.101 198.82Z" fill="#2F2E41"/>
<path d="M325.22 134.215L330.287 137.761L336.874 204.14L295.831 205.154L301.405 159.044L306.472 145.869L310.129 141.034L325.22 134.215Z" fill="#487AD4"/>
<path d="M326.234 181.845L327.784 136.009C327.784 136.009 330.794 136.241 331.808 137.762C332.821 139.282 349.542 142.322 349.542 142.322L346.502 189.446C346.502 189.446 359.17 226.942 354.61 228.969C350.049 230.996 341.942 230.489 341.942 230.489L326.234 181.845Z" fill="#2F2E41"/>
<path d="M301.658 176.018L307.034 145.127L295.071 153.216L298.111 175.511L295.578 190.713C295.578 190.713 285.95 232.769 288.991 234.29C292.031 235.81 295.578 234.29 295.578 234.29L301.658 191.726V176.018Z" fill="#2F2E41"/>
<path d="M298.618 152.203L295.071 153.216L293.551 173.485L291.017 191.219L278.856 213.008C278.856 213.008 284.937 208.954 287.47 220.608L300.863 197.291L298.618 152.203Z" fill="#2F2E41"/>
<path d="M326.18 220.459C326.652 217.458 329.467 215.409 332.468 215.882C332.787 215.932 333.102 216.011 333.408 216.116L345.494 200.76L348.698 210.396L336.731 223.502C335.544 226.315 332.302 227.635 329.488 226.449C327.134 225.456 325.766 222.98 326.18 220.459Z" fill="#FFB7B7"/>
<path d="M346.756 215.034L342.195 220.608L336.115 209.968L338.648 205.407L346.756 215.034Z" fill="#E5E5E5"/>
<path d="M345.742 144.095L349.795 142.069C349.795 142.069 352.836 146.122 353.342 149.669C353.849 153.216 356.383 157.777 356.383 160.31C356.383 162.844 363.477 186.659 363.477 186.659L347.262 219.595C347.262 219.595 343.715 207.434 336.114 206.421L348.782 188.686L341.688 176.018L345.742 144.095Z" fill="#2F2E41"/>
<path d="M433.454 341.312H238.477C238.194 341.312 237.965 341.083 237.965 340.8C237.965 340.517 238.194 340.288 238.477 340.288H433.454C433.736 340.288 433.965 340.517 433.965 340.8C433.965 341.083 433.736 341.312 433.454 341.312Z" fill="#5B616A"/>
<path d="M401.892 341.548V304.528C401.892 304.528 416.319 330.774 401.892 341.548Z" fill="#5B616A"/>
<path d="M402.784 341.541L375.513 316.506C375.513 316.506 404.603 323.627 402.784 341.541Z" fill="#5B616A"/>
<path d="M310.974 135.055C318.635 135.055 324.844 128.845 324.844 121.185C324.844 113.525 318.635 107.315 310.974 107.315C303.314 107.315 297.104 113.525 297.104 121.185C297.104 128.845 303.314 135.055 310.974 135.055Z" fill="#FFB6B6"/>
<path d="M323.09 131.842C323.09 131.842 327.198 123.522 327.125 120.346C327.052 117.169 324.807 108.996 323.86 108.457C322.913 107.918 312.699 102.732 309.931 104.291C307.163 105.85 302.292 111.183 297.037 112.626C295.551 113.034 296.849 120.669 296.849 120.669L302.997 119.78C302.997 119.78 309.407 114.024 309.685 117.943C309.962 121.862 315.906 120.23 315.906 120.23L315.979 123.406L318.412 123.537L319.082 120.157C319.082 120.157 320.176 127.048 318.763 130.633C317.35 134.217 323.09 131.842 323.09 131.842Z" fill="#2F2E41"/>
<path d="M270 188C270 189.105 269.105 190 268 190H18C16.8954 190 16 189.105 16 188V11C16 9.89543 16.8954 9 18 9H268C269.105 9 270 9.89543 270 11V188Z" fill="#525067"/>
<path d="M36.6902 83.34C36.0338 83.34 35.4043 83.6015 34.9402 84.0671C34.4761 84.5327 34.2153 85.1642 34.2153 85.8227C34.2153 86.4811 34.4761 87.1126 34.9402 87.5782C35.4043 88.0438 36.0338 88.3054 36.6902 88.3054H122.467C123.122 88.3041 123.75 88.042 124.214 87.5765C124.677 87.1111 124.937 86.4803 124.937 85.8227C124.937 85.165 124.677 84.5342 124.214 84.0688C123.75 83.6033 123.122 83.3412 122.467 83.34H36.6902Z" fill="#169CAD"/>
<path d="M36.6905 98.2361C36.0342 98.2347 35.4041 98.4949 34.939 98.9595C34.4739 99.4242 34.2118 100.055 34.2105 100.714C34.2091 101.372 34.4685 102.004 34.9316 102.471C35.3948 102.937 36.0237 103.2 36.6801 103.201H122.53C123.187 103.201 123.816 102.94 124.28 102.474C124.744 102.009 125.005 101.377 125.005 100.719C125.005 100.06 124.744 99.4289 124.28 98.9633C123.816 98.4977 123.187 98.2361 122.53 98.2361H36.6905Z" fill="#169CAD"/>
<path d="M36.6905 112.919C36.0342 112.918 35.4041 113.178 34.939 113.643C34.4739 114.108 34.2118 114.738 34.2105 115.397C34.2091 116.055 34.4685 116.687 34.9316 117.154C35.3948 117.621 36.0237 117.883 36.6801 117.885H55.9989C56.6553 117.885 57.2848 117.623 57.7489 117.158C58.2131 116.692 58.4738 116.061 58.4738 115.402C58.4738 114.744 58.2131 114.112 57.7489 113.647C57.2848 113.181 56.6553 112.919 55.9989 112.919H36.6905Z" fill="#169CAD"/>
<path d="M270 190H16V9H270V190ZM20.1753 185.811H265.825V13.1886H20.1753V185.811Z" fill="#6E6B92"/>
<path d="M190.078 150.229C188.898 150.227 187.765 150.696 186.93 151.531C186.094 152.367 185.623 153.501 185.62 154.685C185.618 155.869 186.084 157.005 186.916 157.845C187.749 158.684 188.879 159.157 190.059 159.16H232.567C233.152 159.161 233.732 159.046 234.272 158.822C234.813 158.598 235.304 158.269 235.718 157.854C236.132 157.439 236.46 156.947 236.684 156.405C236.908 155.862 237.024 155.281 237.024 154.695C237.024 154.108 236.908 153.527 236.684 152.984C236.46 152.442 236.132 151.95 235.718 151.535C235.304 151.12 234.813 150.791 234.272 150.567C233.732 150.343 233.152 150.228 232.567 150.229H190.078Z" fill="#3F3D53"/>
<path d="M190.078 96.1465C188.898 96.1449 187.765 96.6134 186.93 97.449C186.094 98.2847 185.623 99.4191 185.62 100.603C185.618 101.787 186.084 102.923 186.916 103.762C187.749 104.602 188.879 105.075 190.059 105.078H232.567C233.152 105.079 233.732 104.964 234.272 104.74C234.813 104.515 235.304 104.187 235.718 103.772C236.132 103.357 236.46 102.865 236.684 102.322C236.908 101.78 237.024 101.199 237.024 100.612C237.024 100.026 236.908 99.4444 236.684 98.9023C236.46 98.3602 236.132 97.8677 235.718 97.4529C235.304 97.0382 234.813 96.7093 234.272 96.4852C233.732 96.261 233.152 96.1459 232.567 96.1465H190.078Z" fill="#3F3D53"/>
<path d="M36.6905 152.297C36.3655 152.296 36.0436 152.36 35.7431 152.484C35.4425 152.608 35.1693 152.791 34.939 153.021C34.7087 153.251 34.5258 153.524 34.4008 153.825C34.2758 154.126 34.2111 154.449 34.2105 154.775C34.2098 155.101 34.2731 155.424 34.3968 155.725C34.5206 156.027 34.7023 156.301 34.9316 156.532C35.161 156.763 35.4334 156.946 35.7334 157.072C36.0334 157.197 36.3551 157.262 36.6801 157.263H122.53C123.187 157.263 123.816 157.001 124.28 156.535C124.744 156.07 125.005 155.438 125.005 154.78C125.005 154.121 124.744 153.49 124.28 153.024C123.816 152.559 123.187 152.297 122.53 152.297H36.6905Z" fill="#3F3D53"/>
<path d="M36.6905 166.98C36.3655 166.98 36.0436 167.043 35.7431 167.167C35.4425 167.291 35.1693 167.474 34.939 167.704C34.7087 167.934 34.5259 168.207 34.4008 168.508C34.2758 168.809 34.2111 169.132 34.2105 169.458C34.2098 169.784 34.2731 170.107 34.3968 170.408C34.5206 170.71 34.7023 170.984 34.9316 171.215C35.161 171.446 35.4334 171.629 35.7334 171.755C36.0334 171.88 36.3551 171.945 36.6801 171.946H55.9989C56.6553 171.946 57.2848 171.684 57.7489 171.219C58.2131 170.753 58.4738 170.122 58.4738 169.463C58.4738 168.805 58.2131 168.173 57.7489 167.708C57.2848 167.242 56.6553 166.98 55.9989 166.98H36.6905Z" fill="#3F3D53"/>
<path d="M36.6902 137.401C36.0338 137.401 35.4043 137.662 34.9402 138.128C34.4761 138.594 34.2153 139.225 34.2153 139.884C34.2153 140.542 34.4761 141.174 34.9402 141.639C35.4043 142.105 36.0338 142.366 36.6902 142.366H122.467C123.122 142.365 123.75 142.103 124.214 141.637C124.677 141.172 124.937 140.541 124.937 139.884C124.937 139.226 124.677 138.595 124.214 138.13C123.75 137.664 123.122 137.402 122.467 137.401H36.6902Z" fill="#3F3D53"/>
<path d="M36.6902 29.2791C36.0338 29.2791 35.4043 29.5406 34.9402 30.0062C34.4761 30.4718 34.2153 31.1033 34.2153 31.7618C34.2153 32.4202 34.4761 33.0517 34.9402 33.5173C35.4043 33.9829 36.0338 34.2445 36.6902 34.2445H122.467C123.122 34.2432 123.75 33.9811 124.214 33.5156C124.677 33.0502 124.937 32.4194 124.937 31.7618C124.937 31.1041 124.677 30.4733 124.214 30.0079C123.75 29.5424 123.122 29.2803 122.467 29.2791H36.6902Z" fill="#3F3D53"/>
<path d="M36.6905 44.1752C36.3655 44.1745 36.0436 44.238 35.7431 44.3622C35.4425 44.4863 35.1693 44.6686 34.939 44.8986C34.7087 45.1287 34.5258 45.402 34.4008 45.703C34.2758 46.0039 34.2111 46.3266 34.2105 46.6526C34.2098 46.9787 34.2731 47.3017 34.3968 47.6031C34.5206 47.9046 34.7023 48.1787 34.9316 48.4097C35.161 48.6407 35.4334 48.8242 35.7334 48.9496C36.0334 49.075 36.3551 49.1399 36.6801 49.1406H122.53C122.855 49.1406 123.177 49.0764 123.477 48.9516C123.778 48.8268 124.051 48.644 124.28 48.4134C124.51 48.1829 124.692 47.9092 124.817 47.608C124.941 47.3068 125.005 46.9839 125.005 46.6579C125.005 46.3318 124.941 46.009 124.817 45.7078C124.692 45.4066 124.51 45.1329 124.28 44.9023C124.051 44.6718 123.778 44.4889 123.477 44.3642C123.177 44.2394 122.855 44.1752 122.53 44.1752H36.6905Z" fill="#3F3D53"/>
<path d="M36.6905 58.8584C36.0342 58.857 35.4041 59.1172 34.939 59.5819C34.4739 60.0465 34.2118 60.6774 34.2105 61.3359C34.2091 61.9943 34.4685 62.6264 34.9316 63.0929C35.3948 63.5595 36.0237 63.8224 36.6801 63.8238H55.9989C56.6553 63.8238 57.2848 63.5622 57.7489 63.0966C58.2131 62.631 58.4738 61.9996 58.4738 61.3411C58.4738 60.6826 58.2131 60.0512 57.7489 59.5856C57.2848 59.12 56.6553 58.8584 55.9989 58.8584H36.6905Z" fill="#3F3D53"/>
<path d="M190.078 42.1067C188.898 42.1051 187.765 42.5736 186.93 43.4092C186.094 44.2449 185.623 45.3793 185.62 46.5632C185.618 47.747 186.084 48.8834 186.916 49.7226C187.749 50.5618 188.879 51.0351 190.059 51.0385H232.567C233.152 51.039 233.732 50.924 234.272 50.6998C234.813 50.4756 235.304 50.1468 235.718 49.732C236.132 49.3172 236.46 48.8247 236.684 48.2826C236.908 47.7405 237.024 47.1594 237.024 46.5726C237.024 45.9857 236.908 45.4046 236.684 44.8625C236.46 44.3204 236.132 43.8279 235.718 43.4131C235.304 42.9984 234.813 42.6695 234.272 42.4454C233.732 42.2212 233.152 42.1061 232.567 42.1067H190.078Z" fill="#3F3D53"/>
<path d="M199.033 54.5393C203.442 54.5393 207.017 50.9535 207.017 46.5303C207.017 42.107 203.442 38.5212 199.033 38.5212C194.624 38.5212 191.049 42.107 191.049 46.5303C191.049 50.9535 194.624 54.5393 199.033 54.5393Z" fill="#169CAD"/>
<path d="M199.033 162.661C203.442 162.661 207.017 159.075 207.017 154.652C207.017 150.229 203.442 146.643 199.033 146.643C194.624 146.643 191.049 150.229 191.049 154.652C191.049 159.075 194.624 162.661 199.033 162.661Z" fill="#169CAD"/>
</svg>
