<svg width="450" height="350" viewBox="0 0 450 350" fill="none" xmlns="http://www.w3.org/2000/svg">
<g clip-path="url(#clip0_767_1415)">
<path opacity="0.07" d="M243.852 260.713C310.875 260.713 365.208 206.38 365.208 139.356C365.208 72.3331 310.875 18 243.852 18C176.829 18 122.496 72.3331 122.496 139.356C122.496 206.38 176.829 260.713 243.852 260.713Z" fill="#497AD4"/>
<path d="M323.157 72.2704H100.848C100.372 72.2602 99.9934 71.8655 100.004 71.3888C100.014 70.9264 100.386 70.554 100.848 70.5441H323.157C323.633 70.5543 324.011 70.949 324.001 71.4257C323.991 71.888 323.619 72.2605 323.157 72.2704Z" fill="#909090"/>
<path d="M247.394 101.36H185.939C181.324 101.36 177.582 105.102 177.582 109.718V109.718C177.582 114.334 181.324 118.076 185.939 118.076H247.394C252.01 118.076 255.752 114.334 255.752 109.718C255.752 105.102 252.01 101.36 247.394 101.36Z" fill="#E6E6E6"/>
<path d="M146.24 134.791H287.095C291.711 134.791 295.453 138.533 295.453 143.149C295.453 147.765 291.711 151.507 287.095 151.507H146.24C141.624 151.507 137.882 147.765 137.882 143.149C137.882 138.533 141.624 134.791 146.24 134.791Z" fill="#E6E6E6"/>
<path d="M146.24 168.223H287.095C291.711 168.223 295.453 171.965 295.453 176.581C295.453 181.197 291.711 184.939 287.095 184.939H146.24C141.624 184.939 137.882 181.197 137.882 176.581C137.882 171.965 141.624 168.223 146.24 168.223Z" fill="#E6E6E6"/>
<path d="M166.844 327.058L172.004 327.057L174.46 307.152L166.843 307.153L166.844 327.058Z" fill="#FDA7A9"/>
<path d="M166.662 332.441L182.531 332.441V332.24C182.531 328.829 179.766 326.063 176.354 326.063L173.455 323.864L168.047 326.064L166.662 326.064L166.662 332.441Z" fill="#2F2E41"/>
<path d="M125.488 312.765L129.615 315.861L143.525 301.413L137.432 296.842L125.488 312.765Z" fill="#FDA7A9"/>
<path d="M122.111 316.962L134.805 326.485L134.926 326.324C136.973 323.596 136.42 319.724 133.692 317.677L132.693 314.178L127.047 312.692L125.938 311.86L122.111 316.962Z" fill="#2F2E41"/>
<path d="M142.642 233.648C142.642 233.648 142.926 241.419 143.286 247.65C143.345 248.672 140.95 249.783 141.012 250.894C141.053 251.632 141.504 252.349 141.545 253.118C141.589 253.93 140.968 254.649 141.012 255.488C141.056 256.308 141.764 257.249 141.807 258.088C142.267 267.123 143.936 277.938 142.265 280.962C141.442 282.452 130.949 303.095 130.949 303.095C130.949 303.095 136.795 311.865 138.466 308.941C140.672 305.08 157.675 287.017 157.675 283.568C157.675 280.122 161.609 254.302 161.609 254.302L164.352 269.582L165.61 272.61L165.215 274.387L166.027 276.786L166.071 279.16L166.863 283.568C166.863 283.568 164.482 317.911 165.823 318.868C167.167 319.828 173.678 321.553 174.446 319.828C175.21 318.103 180.185 283.985 180.185 283.985C180.185 283.985 180.987 268.35 181.855 253.818C181.905 252.974 182.498 251.955 182.544 251.124C182.599 250.159 182.223 248.907 182.273 247.971C182.327 246.898 182.803 246.142 182.849 245.115C183.204 237.176 181.211 227.509 180.577 226.557C178.66 223.684 176.935 221.387 176.935 221.387C176.935 221.387 151.118 212.904 144.219 221.524L142.642 233.648Z" fill="#2F2E41"/>
<path d="M168.391 153.739L158.157 151.693L153.38 158.174C144.469 166.937 144.334 174.671 145.925 187.068V204.466L144.774 216.13C144.774 216.13 140.698 224.656 144.902 226.641C149.106 228.626 176.721 228.457 179.358 227.664C181.995 226.872 179.709 225.899 179.017 222.206C177.716 215.269 178.586 218.615 178.676 216.406C179.959 184.723 176.97 171.716 176.666 168.297L171.461 158.857L168.391 153.739Z" fill="#3A63CA"/>
<path d="M222.333 179.285C221.266 181.306 218.763 182.08 216.742 181.013C216.527 180.899 216.322 180.767 216.13 180.617L194.027 194.651L194.091 187.01L215.562 174.55C217.091 172.836 219.721 172.685 221.436 174.215C222.87 175.494 223.241 177.591 222.333 179.285Z" fill="#A0616A"/>
<path d="M160.31 162.588L157.794 162.321C155.469 162.08 153.187 163.076 151.784 164.945C151.246 165.654 150.86 166.466 150.649 167.33L150.647 167.337C150.016 169.938 151.006 172.665 153.159 174.256L161.85 180.663C167.95 188.904 179.412 194.372 192.858 198.814L213.757 185.834L206.365 176.881L192.03 184.564L170.722 168.069L170.709 168.059L162.599 162.834L160.31 162.588Z" fill="#3A63CA"/>
<path d="M164.933 148.714C171.524 148.714 176.868 143.37 176.868 136.779C176.868 130.187 171.524 124.844 164.933 124.844C158.341 124.844 152.998 130.187 152.998 136.779C152.998 143.37 158.341 148.714 164.933 148.714Z" fill="#FDA7A9"/>
<path d="M165.208 148.716C165.112 148.719 165.016 148.722 164.919 148.724C164.878 148.831 164.834 148.937 164.782 149.041L165.208 148.716Z" fill="#2F2E41"/>
<path d="M168.484 137.11C168.503 137.228 168.531 137.343 168.569 137.456C168.554 137.338 168.525 137.222 168.484 137.11Z" fill="#2F2E41"/>
<path d="M177.02 125.355C176.529 126.88 176.09 124.945 174.474 125.293C172.53 125.712 170.268 125.568 168.676 124.376C166.304 122.636 163.23 122.167 160.447 123.122C157.723 124.086 153.159 124.765 152.449 127.566C152.203 128.54 152.105 129.597 151.507 130.404C150.984 131.109 150.158 131.511 149.468 132.054C147.138 133.888 148.919 139.097 150.022 141.849C151.125 144.601 153.655 146.606 156.436 147.633C159.128 148.627 162.049 148.802 164.919 148.724C165.419 147.429 165.203 145.933 164.791 144.591C164.345 143.137 163.685 141.735 163.498 140.226C163.312 138.717 163.721 137.003 164.986 136.16C166.149 135.385 168.042 135.857 168.484 137.11C168.226 135.544 169.812 134.028 171.449 133.761C173.205 133.475 174.962 134.109 176.713 134.425C178.465 134.741 177.843 127.367 177.02 125.355Z" fill="#2F2E41"/>
<path d="M243.769 156.522C244.881 143.078 234.885 131.279 221.442 130.166C207.999 129.053 196.199 139.049 195.087 152.493C193.974 165.936 203.97 177.735 217.413 178.848C230.856 179.961 242.656 169.965 243.769 156.522Z" fill="#0B9BE3"/>
<path d="M207.135 162.111C206.523 161.05 206.064 159.943 205.75 158.815C207.127 158.111 208.07 156.678 208.07 155.025C208.07 153.373 207.129 151.941 205.753 151.237C206.386 148.954 207.587 146.828 209.295 145.09C210.593 145.932 212.304 146.033 213.735 145.206C215.166 144.379 215.935 142.845 215.854 141.3C218.213 140.688 220.653 140.71 222.945 141.304C222.867 142.848 223.635 144.38 225.065 145.206C226.496 146.033 228.207 145.932 229.505 145.09C230.324 145.926 231.053 146.878 231.665 147.939C232.277 149 232.736 150.107 233.05 151.235C231.673 151.939 230.73 153.372 230.73 155.025C230.73 156.677 231.671 158.109 233.047 158.813C232.414 161.096 231.213 163.222 229.505 164.96C228.207 164.118 226.496 164.017 225.065 164.844C223.634 165.671 222.865 167.205 222.945 168.75C220.587 169.361 218.147 169.34 215.855 168.746C215.933 167.202 215.165 165.67 213.735 164.844C212.304 164.017 210.593 164.118 209.296 164.96C208.476 164.124 207.747 163.172 207.135 162.111ZM215.151 162.389C216.697 163.282 217.807 164.694 218.339 166.314C219.044 166.382 219.755 166.383 220.461 166.317C220.992 164.696 222.102 163.283 223.649 162.389C225.195 161.496 226.973 161.24 228.641 161.59C229.051 161.011 229.406 160.395 229.7 159.75C228.564 158.479 227.897 156.811 227.897 155.025C227.897 153.239 228.564 151.571 229.7 150.3C229.553 149.98 229.39 149.665 229.212 149.356C229.033 149.047 228.842 148.748 228.639 148.461C226.971 148.81 225.194 148.554 223.649 147.661C222.103 146.768 220.993 145.356 220.461 143.736C219.756 143.668 219.045 143.667 218.34 143.733C217.808 145.354 216.698 146.767 215.151 147.661C213.605 148.554 211.827 148.81 210.159 148.46C209.749 149.039 209.394 149.655 209.1 150.3C210.236 151.571 210.903 153.239 210.903 155.025C210.903 156.811 210.236 158.479 209.1 159.75C209.247 160.07 209.41 160.385 209.588 160.694C209.766 161.003 209.958 161.302 210.161 161.589C211.829 161.24 213.606 161.496 215.151 162.389ZM219.4 159.277C217.054 159.277 215.151 157.373 215.151 155.025C215.151 152.677 217.054 150.773 219.4 150.773C221.747 150.773 223.649 152.677 223.649 155.025C223.649 157.373 221.747 159.277 219.4 159.277ZM219.4 156.442C220.182 156.442 220.816 155.808 220.816 155.025C220.816 154.242 220.182 153.608 219.4 153.608C218.618 153.608 217.984 154.242 217.984 155.025C217.984 155.808 218.618 156.442 219.4 156.442Z" fill="white"/>
<path d="M209.803 133.978C210.523 136.147 209.348 138.489 207.179 139.209C206.948 139.286 206.711 139.342 206.469 139.377L201.295 165.042L195.825 159.706L201.698 135.587C201.52 133.296 203.232 131.294 205.523 131.116C207.439 130.967 209.209 132.15 209.803 133.978Z" fill="#FDA7A9"/>
<path d="M215.404 332.853L85.567 333C85.2529 332.999 84.999 332.744 85 332.429C85.001 332.117 85.2543 331.863 85.567 331.862L215.404 331.715C215.718 331.716 215.972 331.972 215.971 332.286C215.97 332.599 215.717 332.852 215.404 332.853Z" fill="#CBCBCB"/>
<path d="M112.127 61.3363C114.358 61.3363 116.167 59.4871 116.167 57.2059C116.167 54.9247 114.358 53.0754 112.127 53.0754C109.895 53.0754 108.086 54.9247 108.086 57.2059C108.086 59.4871 109.895 61.3363 112.127 61.3363Z" fill="#909090"/>
<path d="M126.085 61.3363C128.316 61.3363 130.125 59.4871 130.125 57.2059C130.125 54.9247 128.316 53.0754 126.085 53.0754C123.853 53.0754 122.044 54.9247 122.044 57.2059C122.044 59.4871 123.853 61.3363 126.085 61.3363Z" fill="#909090"/>
<path d="M140.042 61.3363C142.274 61.3363 144.083 59.4871 144.083 57.2059C144.083 54.9247 142.274 53.0754 140.042 53.0754C137.811 53.0754 136.002 54.9247 136.002 57.2059C136.002 59.4871 137.811 61.3363 140.042 61.3363Z" fill="#909090"/>
<path d="M155.958 60.4704C155.834 60.4704 155.71 60.4224 155.616 60.3267L152.89 57.5398C152.708 57.3541 152.708 57.0574 152.89 56.8717L155.616 54.085C155.801 53.8965 156.104 53.8935 156.292 54.0775C156.481 54.2621 156.484 54.5647 156.3 54.7531L153.9 57.2057L156.3 59.6586C156.484 59.8471 156.481 60.1496 156.292 60.3342C156.199 60.4252 156.079 60.4704 155.958 60.4704Z" fill="#909090"/>
<path d="M160.539 60.4704C160.419 60.4704 160.298 60.4251 160.205 60.3342C160.017 60.1496 160.013 59.8473 160.198 59.6586L162.597 57.2057L160.198 54.7531C160.013 54.5646 160.017 54.2621 160.205 54.0775C160.394 53.8928 160.696 53.8963 160.881 54.085L163.607 56.8717C163.789 57.0574 163.789 57.3541 163.607 57.5398L160.881 60.3267C160.787 60.4224 160.663 60.4704 160.539 60.4704Z" fill="#909090"/>
<path d="M303.161 53.5536H298.092C297.514 53.5536 297.046 54.0218 297.046 54.5999V59.674C297.046 60.2521 297.514 60.7203 298.092 60.7203H303.161C303.74 60.7203 304.213 60.2521 304.213 59.674V54.5999C304.213 54.0218 303.74 53.5536 303.161 53.5536Z" fill="#909090"/>
<path d="M290.739 53.5536H285.67C285.092 53.5536 284.624 54.0218 284.624 54.5999V59.674C284.624 60.2521 285.092 60.7203 285.67 60.7203H290.739C291.317 60.7203 291.79 60.2521 291.79 59.674V54.5999C291.79 54.0218 291.317 53.5536 290.739 53.5536Z" fill="#909090"/>
<path d="M314.867 53.7925H309.798C309.22 53.7925 308.751 54.2607 308.751 54.8388V59.9129C308.751 60.491 309.22 60.9592 309.798 60.9592H314.867C315.445 60.9592 315.918 60.491 315.918 59.9129V54.8388C315.918 54.2607 315.445 53.7925 314.867 53.7925Z" fill="#909090"/>
<path d="M238.459 55.7228H197.939C197.232 55.7228 196.663 56.2961 196.663 56.9985C196.663 57.7008 197.232 58.2741 197.939 58.2741H238.459C239.162 58.2741 239.735 57.7008 239.735 56.9985C239.735 56.2962 239.162 55.7228 238.459 55.7228Z" fill="#909090"/>
<path d="M154.816 167.175L152.881 168.806C151.098 170.317 150.237 172.653 150.613 174.96C150.753 175.838 151.071 176.679 151.549 177.429L151.553 177.435C152.993 179.692 155.646 180.865 158.285 180.412L168.925 178.577C179.095 179.881 190.976 175.395 203.489 168.768L208.592 144.701L197.014 143.837L192.633 159.5L165.979 163.456L165.963 163.458L156.578 165.693L154.816 167.175Z" fill="#3A63CA"/>
</g>
<defs>
<clipPath id="clip0_767_1415">
<rect width="280.208" height="315" fill="white" transform="translate(85 18)"/>
</clipPath>
</defs>
</svg>
