<svg width="437" height="310" viewBox="0 0 437 310" fill="none" xmlns="http://www.w3.org/2000/svg">
<path d="M424.974 189.328H408.203C407.845 189.329 407.491 189.248 407.168 189.093C406.845 188.937 406.562 188.711 406.339 188.43C406.119 188.157 405.964 187.837 405.885 187.495C405.806 187.153 405.806 186.797 405.884 186.455C407.459 179.502 407.383 172.277 405.662 165.359C405.529 164.83 405.584 164.271 405.817 163.778C406.05 163.284 406.447 162.887 406.94 162.653C413.945 159.375 420.378 159.46 426.059 162.907C426.357 163.085 426.613 163.326 426.808 163.613C427.003 163.9 427.133 164.226 427.189 164.569C428.394 172.09 428.44 179.751 427.326 187.286C427.247 187.853 426.965 188.373 426.533 188.748C426.101 189.124 425.547 189.329 424.974 189.328Z" fill="#20A6AF"/>
<path d="M424.72 178.341H411.896C411.578 178.34 411.272 178.213 411.047 177.987C410.822 177.762 410.696 177.456 410.696 177.138C410.696 176.819 410.822 176.513 411.047 176.288C411.272 176.062 411.578 175.935 411.896 175.935H424.72C425.038 175.935 425.344 176.062 425.569 176.288C425.794 176.513 425.92 176.819 425.92 177.138C425.92 177.456 425.794 177.762 425.569 177.987C425.344 178.213 425.038 178.34 424.72 178.341Z" fill="white"/>
<path d="M424.72 174.122H411.896C411.578 174.121 411.272 173.994 411.047 173.769C410.822 173.543 410.696 173.238 410.696 172.919C410.696 172.6 410.822 172.295 411.047 172.069C411.272 171.844 411.578 171.717 411.896 171.716H424.72C425.038 171.717 425.344 171.844 425.569 172.069C425.794 172.295 425.92 172.6 425.92 172.919C425.92 173.238 425.794 173.543 425.569 173.769C425.344 173.994 425.038 174.121 424.72 174.122Z" fill="white"/>
<path opacity="0.07" d="M89.1197 187.647C138.339 187.647 178.239 147.746 178.239 98.5271C178.239 49.3076 138.339 9.40738 89.1197 9.40738C39.9002 9.40738 0 49.3076 0 98.5271C0 147.746 39.9002 187.647 89.1197 187.647Z" fill="#497AD4"/>
<path d="M192.477 185.01C201.797 185.01 209.352 177.455 209.352 168.135C209.352 158.816 201.797 151.261 192.477 151.261C183.158 151.261 175.603 158.816 175.603 168.135C175.603 177.455 183.158 185.01 192.477 185.01Z" fill="#F2F2F2"/>
<path d="M402.643 156.75L397.731 109.204L396.434 89.635L410.183 87.1489C410.183 87.1489 412.242 100.601 414.043 108.496C415.82 116.286 411.675 155.706 411.565 156.746C412.575 157.649 413.287 158.837 413.607 160.153C413.926 161.469 413.839 162.852 413.356 164.117C412.873 165.383 412.017 166.472 410.902 167.24C409.787 168.009 408.464 168.421 407.11 168.421C405.755 168.422 404.432 168.012 403.316 167.244C402.2 166.476 401.343 165.388 400.859 164.123C400.375 162.858 400.286 161.476 400.605 160.159C400.923 158.843 401.634 157.654 402.643 156.75Z" fill="#FFB8B8"/>
<path d="M346.459 302.739H339.465L336.137 275.761L346.46 275.761L346.459 302.739Z" fill="#FFB6B6"/>
<path d="M348.243 309.519L325.69 309.518V309.233C325.691 306.905 326.616 304.672 328.262 303.026C329.908 301.38 332.141 300.455 334.469 300.455H334.469L338.589 297.33L346.275 300.456L348.244 300.456L348.243 309.519Z" fill="#2F2E41"/>
<path d="M408.103 302.739H401.109L397.781 275.761L408.104 275.761L408.103 302.739Z" fill="#FFB6B6"/>
<path d="M409.887 309.519L387.334 309.518V309.233C387.335 306.905 388.26 304.672 389.906 303.026C391.552 301.38 393.785 300.455 396.113 300.455H396.113L400.233 297.33L407.919 300.456L409.888 300.456L409.887 309.519Z" fill="#2F2E41"/>
<path d="M397.465 158.349L403.348 214.236C403.348 214.236 411.179 270.195 409.709 277.917C408.238 285.638 410.076 286.741 410.076 286.741L396.657 285.785C396.657 285.785 397.024 281.005 394.818 278.799C392.612 276.593 393.715 269.975 393.715 269.975L367.683 178.939L351.873 226.737C351.873 226.737 349.299 279.316 348.931 280.051C348.564 280.786 347.461 290.714 347.461 290.714H333.857C333.857 290.714 335.695 284.831 333.121 282.992C330.547 281.154 328.341 282.625 330.547 279.316C332.753 276.006 333.489 271.962 332.753 270.124C332.018 268.285 332.018 260.932 332.018 260.932C332.018 260.932 333.121 161.658 339.372 158.349C345.622 155.04 397.465 158.349 397.465 158.349Z" fill="#2F2E41"/>
<path d="M369.606 45.1912C377.597 45.1912 384.075 38.713 384.075 30.7218C384.075 22.7305 377.597 16.2524 369.606 16.2524C361.614 16.2524 355.136 22.7305 355.136 30.7218C355.136 38.713 361.614 45.1912 369.606 45.1912Z" fill="#FFB8B8"/>
<path d="M412.501 94.7343L398.271 99.8379L393.936 101.391L390.773 60.9828L401.63 66.7411C401.648 66.7546 401.664 66.7706 401.678 66.7888C403.558 68.8655 405.132 71.2004 406.351 73.7226C412.305 85.8269 412.501 94.7343 412.501 94.7343Z" fill="#497AD4"/>
<path d="M314.467 153.336C314.467 153.336 328.931 108.398 329.184 107.859C331.078 93.4727 336.527 87.1269 337.343 87.8159L351.406 92.6878C351.406 92.6878 347.223 105.934 344.391 113.802C341.685 121.32 323.151 156.031 322.631 156.937C323.19 158.171 323.361 159.546 323.121 160.879C322.882 162.212 322.244 163.441 321.291 164.404C320.337 165.366 319.115 166.017 317.784 166.269C316.453 166.522 315.077 166.364 313.838 165.817C312.598 165.271 311.554 164.361 310.843 163.208C310.132 162.055 309.788 160.713 309.857 159.36C309.925 158.008 310.402 156.707 311.225 155.632C312.049 154.556 313.179 153.756 314.467 153.336Z" fill="#FFB8B8"/>
<path d="M358.162 63.5852C358.162 63.5852 345.986 57.6179 341.264 69.3379C338.171 77.2418 336.707 80.6894 334.642 88.9218C334.642 88.9218 347.052 90.7838 351.032 97.7972L358.162 63.5852Z" fill="#497AD4"/>
<path d="M402.466 164.44C374.444 170.227 337.31 160.278 337.31 160.278L347.216 117.337L343.694 72.3989C343.264 66.9035 346.394 61.7522 351.263 59.9268L357.987 57.4084L363.544 49.452L379.419 49.9728L385.765 58.3259L390.773 60.9828L401.63 66.7411L401.678 66.7649V66.7888L398.27 99.8379L396.216 119.765C396.216 119.765 402.457 142.176 401.176 145.149C399.895 148.116 401.009 146.683 401.319 148.269C401.63 149.856 402.581 149.956 402.724 153.081C402.872 156.202 402.466 164.44 402.466 164.44Z" fill="#497AD4"/>
<path d="M385.302 25.5693C384.158 24.4413 385.88 21.4549 385.554 19.8819C385.182 18.0784 383.194 18.0256 382.72 16.246C382.21 14.3317 380.17 13.2895 378.284 12.6828C373.45 11.1359 368.292 10.8997 363.336 11.9981C361.143 12.5336 358.984 13.1989 356.869 13.9903C355.41 14.5039 356.817 13.1061 355.358 13.6198C354.805 13.7429 354.318 14.0664 353.989 14.5278C353.727 15.0239 354.081 15.8174 354.633 15.7168C352.851 16.5026 351.069 17.2885 349.287 18.0743C350.286 19.1211 351.286 20.168 352.285 21.2149C350.865 20.8105 349.35 22.5044 349.91 23.8711C350.135 24.3026 350.462 24.6728 350.862 24.9499C351.263 25.2269 351.724 25.4025 352.207 25.4615C353.812 25.7738 352.595 27.3013 354.23 27.2716C355.865 27.2418 367.265 23.8906 368.06 25.3195C368.626 26.3371 368.564 27.6849 369.372 28.5233C370.406 29.5959 372.211 29.2036 373.527 28.5053C374.843 27.8071 376.178 26.8474 377.658 27.0148C379.203 27.1896 380.372 30.0455 380.753 31.5536C381.134 33.0617 380.893 34.6485 380.651 36.1849C380.333 38.2027 377.147 40.2204 376.829 42.2382C380.364 43.2158 384.157 40.1052 385.554 34.6956C385.415 31.276 387.738 27.973 385.302 25.5693Z" fill="#2F2E41"/>
<path d="M160.362 213.488C117.767 213.49 80.7069 181.715 75.2319 138.376L76.2784 138.244C81.6856 181.048 118.295 212.431 160.363 212.434C163.937 212.434 167.508 212.208 171.054 211.759C217.452 205.898 250.431 163.382 244.569 116.984L245.616 116.851C251.55 163.826 218.161 206.871 171.186 212.806C167.596 213.26 163.981 213.488 160.362 213.488Z" fill="#5F646E"/>
<path d="M162.649 231.127H145.878C145.52 231.128 145.166 231.047 144.843 230.892C144.52 230.736 144.237 230.51 144.014 230.229C143.794 229.956 143.639 229.636 143.56 229.294C143.481 228.952 143.481 228.596 143.559 228.254C145.15 221.23 145.056 213.93 143.285 206.949C143.164 206.467 143.198 205.959 143.383 205.497C143.568 205.036 143.893 204.645 144.314 204.379C150.116 200.785 156.433 200.897 163.629 204.723C163.956 204.895 164.239 205.141 164.456 205.44C164.672 205.74 164.817 206.085 164.878 206.45C166.069 213.945 166.111 221.578 165.001 229.085C164.922 229.653 164.641 230.172 164.208 230.547C163.776 230.923 163.222 231.129 162.649 231.127Z" fill="#20A6AF"/>
<path d="M86.1859 141.48H69.4147C69.0564 141.481 68.7025 141.4 68.3797 141.245C68.0569 141.089 67.7735 140.863 67.5507 140.582C67.3307 140.309 67.1754 139.989 67.0966 139.647C67.0178 139.305 67.0175 138.949 67.0957 138.607C68.693 131.559 68.5927 124.232 66.803 117.231C66.6898 116.77 66.7171 116.285 66.8816 115.84C67.046 115.395 67.3399 115.009 67.7256 114.732C76.3493 108.53 83.1408 108.71 87.9116 115.268C88.1266 115.567 88.2695 115.912 88.329 116.275C89.6037 123.938 89.6742 131.753 88.538 139.438C88.4591 140.005 88.1773 140.525 87.7448 140.9C87.3124 141.276 86.7585 141.482 86.1859 141.48Z" fill="#CCCCCC"/>
<path d="M154.813 215.387H149.044C148.726 215.386 148.42 215.259 148.195 215.033C147.97 214.808 147.844 214.502 147.844 214.184C147.844 213.865 147.97 213.559 148.195 213.334C148.42 213.108 148.726 212.981 149.044 212.981H154.813C155.132 212.981 155.438 213.107 155.664 213.333C155.89 213.559 156.016 213.865 156.016 214.184C156.016 214.503 155.89 214.809 155.664 215.034C155.438 215.26 155.132 215.387 154.813 215.387Z" fill="white"/>
<path d="M161.868 220.14H149.044C148.726 220.139 148.42 220.012 148.195 219.786C147.97 219.561 147.844 219.255 147.844 218.937C147.844 218.618 147.97 218.312 148.195 218.087C148.42 217.861 148.726 217.734 149.044 217.734H161.868C162.186 217.734 162.492 217.861 162.717 218.087C162.942 218.312 163.068 218.618 163.068 218.937C163.068 219.255 162.942 219.561 162.717 219.786C162.492 220.012 162.186 220.139 161.868 220.14Z" fill="white"/>
<path d="M80.9863 124.685H75.217C74.8984 124.684 74.5931 124.557 74.368 124.332C74.143 124.106 74.0166 123.801 74.0166 123.482C74.0166 123.163 74.143 122.858 74.368 122.632C74.5931 122.407 74.8984 122.28 75.217 122.279H80.9863C81.3049 122.28 81.6102 122.407 81.8353 122.632C82.0603 122.858 82.1867 123.163 82.1867 123.482C82.1867 123.801 82.0603 124.106 81.8353 124.332C81.6102 124.557 81.3049 124.684 80.9863 124.685Z" fill="white"/>
<path d="M80.9863 128.904H75.217C74.8984 128.903 74.5931 128.776 74.368 128.55C74.143 128.325 74.0166 128.019 74.0166 127.701C74.0166 127.382 74.143 127.076 74.368 126.851C74.5931 126.625 74.8984 126.498 75.217 126.498H80.9863C81.3049 126.498 81.6102 126.625 81.8353 126.851C82.0603 127.076 82.1867 127.382 82.1867 127.701C82.1867 128.019 82.0603 128.325 81.8353 128.55C81.6102 128.776 81.3049 128.903 80.9863 128.904Z" fill="white"/>
<path d="M80.9863 133.122H75.217C74.8984 133.122 74.5931 132.995 74.368 132.769C74.143 132.544 74.0166 132.238 74.0166 131.919C74.0166 131.601 74.143 131.295 74.368 131.07C74.5931 130.844 74.8984 130.717 75.217 130.716H80.9863C81.3049 130.717 81.6102 130.844 81.8353 131.07C82.0603 131.295 82.1867 131.601 82.1867 131.919C82.1867 132.238 82.0603 132.544 81.8353 132.769C81.6102 132.995 81.3049 133.122 80.9863 133.122Z" fill="white"/>
<path opacity="0.37" d="M311.907 161.294H258.296C256.859 161.292 255.481 160.72 254.466 159.704C253.45 158.689 252.878 157.311 252.876 155.874V122.855C252.878 121.418 253.45 120.04 254.466 119.024C255.481 118.008 256.859 117.437 258.296 117.435H311.907C313.344 117.437 314.722 118.008 315.738 119.024C316.754 120.04 317.325 121.418 317.327 122.855V155.874C317.325 157.311 316.754 158.689 315.738 159.704C314.722 160.72 313.344 161.292 311.907 161.294Z" fill="#497AD4"/>
<path d="M290.681 156.801H262.139C260.793 156.8 259.503 156.264 258.551 155.313C257.6 154.361 257.065 153.071 257.063 151.726V126.524C257.065 125.179 257.6 123.889 258.551 122.937C259.503 121.986 260.793 121.45 262.139 121.449H308.213C309.559 121.45 310.849 121.986 311.8 122.937C312.752 123.889 313.287 125.179 313.289 126.524V134.194C313.282 140.187 310.898 145.934 306.659 150.172C302.421 154.41 296.675 156.794 290.681 156.801Z" fill="#D0CDE1"/>
<path d="M303.543 135.488H266.661C266.342 135.488 266.036 135.361 265.81 135.136C265.585 134.91 265.458 134.604 265.458 134.285C265.458 133.966 265.585 133.66 265.81 133.435C266.036 133.209 266.342 133.082 266.661 133.082H303.543C303.862 133.082 304.168 133.209 304.394 133.435C304.619 133.66 304.746 133.966 304.746 134.285C304.746 134.604 304.619 134.91 304.394 135.136C304.168 135.361 303.862 135.488 303.543 135.488Z" fill="#0F90DF"/>
<path d="M272.43 140.241H266.66C266.342 140.24 266.036 140.113 265.811 139.888C265.586 139.662 265.46 139.357 265.46 139.038C265.46 138.72 265.586 138.414 265.811 138.188C266.036 137.963 266.342 137.836 266.66 137.835H272.43C272.748 137.836 273.054 137.963 273.279 138.188C273.504 138.414 273.63 138.72 273.63 139.038C273.63 139.357 273.504 139.662 273.279 139.888C273.054 140.113 272.748 140.24 272.43 140.241Z" fill="#0F90DF"/>
<path d="M282.648 144.994H266.661C266.342 144.994 266.036 144.867 265.81 144.642C265.585 144.416 265.458 144.11 265.458 143.791C265.458 143.472 265.585 143.166 265.81 142.941C266.036 142.715 266.342 142.588 266.661 142.588H282.648C282.967 142.588 283.273 142.715 283.499 142.941C283.725 143.166 283.851 143.472 283.851 143.791C283.851 144.11 283.725 144.416 283.499 144.642C283.273 144.867 282.967 144.994 282.648 144.994Z" fill="#0F90DF"/>
<path d="M251.006 128.119C257.269 128.119 262.346 123.041 262.346 116.778C262.346 110.514 257.269 105.437 251.006 105.437C244.742 105.437 239.665 110.514 239.665 116.778C239.665 123.041 244.742 128.119 251.006 128.119Z" fill="#3F3D56"/>
<path d="M122.626 30.5062C123.377 26.6954 124.871 23.0699 127.023 19.8365C129.175 16.6031 131.942 13.8253 135.168 11.6616C141.682 7.2917 149.665 5.68856 157.361 7.2048C161.172 7.95556 164.798 9.44955 168.031 11.6015C171.264 13.7534 174.042 16.5211 176.206 19.7466C178.37 22.9721 179.877 26.5921 180.642 30.4001C181.406 34.2081 181.413 38.1294 180.663 41.9401L179.628 41.7363C181.09 34.3147 179.544 26.6162 175.33 20.3344C171.116 14.0526 164.579 9.70208 157.157 8.23989C149.736 6.77771 142.037 8.32364 135.756 12.5376C129.474 16.7516 125.123 23.2884 123.661 30.71L122.626 30.5062Z" fill="#5F646E"/>
<path d="M133.857 49.1656L117.1 49.8597C116.742 49.8752 116.385 49.8096 116.056 49.6676C115.727 49.5256 115.435 49.3109 115.201 49.0397C114.969 48.7755 114.801 48.4624 114.708 48.1239C114.615 47.7854 114.6 47.4302 114.664 47.085C115.95 40.0731 115.575 32.8575 113.57 26.0165C113.415 25.4933 113.447 24.9327 113.659 24.4301C113.871 23.9275 114.251 23.514 114.734 23.2603C121.598 19.6944 128.029 19.5136 133.848 22.7222C134.153 22.8879 134.418 23.1182 134.625 23.3968C134.832 23.6755 134.976 23.996 135.046 24.3359C136.561 31.8008 136.924 39.4536 136.123 47.0284C136.067 47.5984 135.807 48.1289 135.391 48.5219C134.974 48.9148 134.429 49.1435 133.857 49.1656Z" fill="#20A6AF"/>
<path d="M133.147 38.1982L120.335 38.7289C120.177 38.7356 120.019 38.7111 119.871 38.6568C119.722 38.6025 119.586 38.5195 119.47 38.4125C119.353 38.3055 119.259 38.1766 119.193 38.0332C119.126 37.8899 119.089 37.7348 119.082 37.5769C119.076 37.4189 119.1 37.2613 119.155 37.1129C119.209 36.9645 119.292 36.8283 119.399 36.712C119.506 36.5958 119.635 36.5018 119.779 36.4354C119.922 36.369 120.077 36.3316 120.235 36.3252L133.048 35.7945C133.206 35.788 133.363 35.8126 133.511 35.8669C133.66 35.9213 133.796 36.0043 133.912 36.1113C134.028 36.2183 134.122 36.3471 134.189 36.4904C134.255 36.6338 134.293 36.7888 134.299 36.9466C134.306 37.1044 134.281 37.262 134.227 37.4103C134.173 37.5586 134.09 37.6948 133.983 37.811C133.876 37.9272 133.747 38.0213 133.603 38.0877C133.46 38.1541 133.305 38.1917 133.147 38.1982Z" fill="white"/>
<path d="M132.973 33.9832L120.16 34.5139C119.842 34.5271 119.531 34.4131 119.296 34.197C119.061 33.981 118.922 33.6805 118.909 33.3618C118.896 33.043 119.01 32.7321 119.226 32.4973C119.442 32.2626 119.742 32.1233 120.061 32.1101L132.873 31.5794C133.192 31.5662 133.503 31.6802 133.738 31.8963C133.973 32.1123 134.112 32.4128 134.125 32.7315C134.138 33.0503 134.024 33.3612 133.808 33.596C133.592 33.8307 133.292 33.97 132.973 33.9832Z" fill="white"/>
<path opacity="0.37" d="M243.52 43.8583H189.909C188.472 43.8567 187.094 43.2852 186.078 42.2692C185.062 41.2533 184.491 39.8758 184.489 38.439V5.41931C184.491 3.98252 185.062 2.60504 186.078 1.58908C187.094 0.573113 188.472 0.00162882 189.909 0H243.52C244.957 0.00162323 246.334 0.573105 247.35 1.58907C248.366 2.60504 248.938 3.98252 248.939 5.41931V38.439C248.938 39.8758 248.366 41.2533 247.35 42.2692C246.334 43.2852 244.957 43.8567 243.52 43.8583Z" fill="#497AD4"/>
<path d="M222.121 39.2698H193.579C192.233 39.2683 190.943 38.7331 189.991 37.7816C189.04 36.8301 188.504 35.54 188.503 34.1944V8.99305C188.504 7.64742 189.04 6.35735 189.991 5.40587C190.943 4.45439 192.233 3.91919 193.579 3.91771H239.653C240.999 3.9192 242.289 4.45441 243.24 5.40589C244.192 6.35738 244.727 7.64745 244.729 8.99305V16.6623C244.722 22.6562 242.338 28.4025 238.099 32.6408C233.861 36.879 228.115 39.263 222.121 39.2698Z" fill="#D0CDE1"/>
<path d="M235.155 18.0528H198.273C197.954 18.0528 197.648 17.926 197.423 17.7004C197.197 17.4749 197.07 17.1689 197.07 16.8499C197.07 16.5309 197.197 16.2249 197.423 15.9993C197.648 15.7738 197.954 15.647 198.273 15.647H235.155C235.474 15.647 235.78 15.7738 236.006 15.9993C236.231 16.2249 236.358 16.5309 236.358 16.8499C236.358 17.1689 236.231 17.4749 236.006 17.7004C235.78 17.926 235.474 18.0528 235.155 18.0528Z" fill="#0F90DF"/>
<path d="M204.042 22.8058H198.273C197.955 22.8051 197.649 22.6781 197.424 22.4526C197.199 22.2271 197.073 21.9215 197.073 21.6029C197.073 21.2843 197.199 20.9787 197.424 20.7532C197.649 20.5277 197.955 20.4007 198.273 20.4H204.042C204.361 20.4007 204.666 20.5277 204.891 20.7532C205.116 20.9787 205.243 21.2843 205.243 21.6029C205.243 21.9215 205.116 22.2271 204.891 22.4526C204.666 22.6781 204.361 22.8051 204.042 22.8058Z" fill="#0F90DF"/>
<path d="M214.261 27.5589H198.273C197.954 27.5589 197.648 27.4321 197.423 27.2066C197.197 26.981 197.07 26.675 197.07 26.356C197.07 26.0369 197.197 25.731 197.423 25.5054C197.648 25.2798 197.954 25.1531 198.273 25.1531H214.261C214.579 25.1537 214.885 25.2808 215.11 25.5063C215.335 25.7318 215.461 26.0374 215.461 26.356C215.461 26.6746 215.335 26.9801 215.11 27.2057C214.885 27.4312 214.579 27.5582 214.261 27.5589Z" fill="#0F90DF"/>
<path d="M190.861 49.5744C194.168 44.2549 192.536 37.2621 187.217 33.9554C181.897 30.6488 174.904 32.2805 171.598 37.5999C168.291 42.9194 169.923 49.9122 175.242 53.2189C180.562 56.5256 187.554 54.8939 190.861 49.5744Z" fill="#3F3D56"/>
<path d="M435.813 310H280.001C279.872 310 279.749 309.949 279.658 309.858C279.567 309.767 279.516 309.644 279.516 309.515C279.516 309.387 279.567 309.263 279.658 309.172C279.749 309.081 279.872 309.03 280.001 309.03H435.813C435.942 309.03 436.065 309.081 436.156 309.172C436.247 309.263 436.298 309.387 436.298 309.515C436.298 309.644 436.247 309.767 436.156 309.858C436.065 309.949 435.942 310 435.813 310Z" fill="#CCCCCC"/>
<path d="M30.1531 132.06C25.5002 119.76 25.9241 106.115 31.3317 94.1273C36.7392 82.1395 46.6874 72.7909 58.9878 68.1379C71.2882 63.485 84.9331 63.9089 96.9209 69.3164C108.909 74.724 118.257 84.6722 122.91 96.9726L121.924 97.3459C119.669 91.385 116.262 85.9265 111.898 81.2822C107.533 76.6379 102.297 72.8987 96.4873 70.2781C90.6778 67.6576 84.409 66.2069 78.0389 66.0089C71.6688 65.811 65.3221 66.8697 59.3612 69.1246C53.4002 71.3795 47.9417 74.7864 43.2975 79.1507C38.6532 83.5151 34.914 88.7515 32.2934 94.561C29.6728 100.37 28.2221 106.639 28.0242 113.009C27.8263 119.379 28.885 125.726 31.1398 131.687L30.1531 132.06Z" fill="#5F646E"/>
<path d="M73.5297 82.9457H56.7585C56.4002 82.9465 56.0463 82.8661 55.7235 82.7106C55.4007 82.5551 55.1173 82.3285 54.8945 82.0479C54.6745 81.7744 54.5192 81.4546 54.4404 81.1125C54.3616 80.7704 54.3613 80.4149 54.4395 80.0727C56.0272 73.0654 55.9374 65.7822 54.1774 58.8163C54.0526 58.3233 54.0909 57.8032 54.2865 57.3338C54.4821 56.8644 54.8245 56.471 55.2625 56.2125C61.3377 52.6762 67.8253 52.7841 74.5447 56.5342C74.8628 56.7076 75.1371 56.9515 75.3467 57.247C75.5562 57.5426 75.6955 57.8822 75.7539 58.2398C76.9499 65.744 76.993 73.3868 75.8819 80.9041C75.8029 81.4713 75.5211 81.9906 75.0886 82.366C74.6562 82.7414 74.1023 82.9473 73.5297 82.9457Z" fill="#20A6AF"/>
<path d="M65.6938 66.678H59.9245C59.6059 66.6773 59.3006 66.5503 59.0756 66.3248C58.8505 66.0992 58.7241 65.7937 58.7241 65.4751C58.7241 65.1565 58.8505 64.8509 59.0756 64.6254C59.3006 64.3998 59.6059 64.2728 59.9245 64.2722H65.6938C66.0124 64.2728 66.3177 64.3998 66.5428 64.6254C66.7678 64.8509 66.8942 65.1565 66.8942 65.4751C66.8942 65.7937 66.7678 66.0992 66.5428 66.3248C66.3177 66.5503 66.0124 66.6773 65.6938 66.678Z" fill="white"/>
<path d="M72.7481 71.4311H59.9246C59.6056 71.4311 59.2996 71.3043 59.074 71.0787C58.8484 70.8531 58.7217 70.5472 58.7217 70.2282C58.7217 69.9091 58.8484 69.6032 59.074 69.3776C59.2996 69.152 59.6056 69.0252 59.9246 69.0252H72.7481C73.0667 69.0259 73.372 69.1529 73.597 69.3785C73.8221 69.604 73.9485 69.9096 73.9485 70.2282C73.9485 70.5468 73.8221 70.8523 73.597 71.0779C73.372 71.3034 73.0667 71.4304 72.7481 71.4311Z" fill="white"/>
<path d="M39.5154 136.057C42.822 130.738 41.1903 123.745 35.8709 120.438C30.5514 117.132 23.5585 118.763 20.2519 124.083C16.9452 129.402 18.5769 136.395 23.8964 139.702C29.2158 143.009 36.2087 141.377 39.5154 136.057Z" fill="#3F3D56"/>
<path d="M131.009 114.586H114.238C113.88 114.587 113.526 114.506 113.203 114.351C112.88 114.195 112.597 113.969 112.374 113.688C112.154 113.414 111.999 113.095 111.92 112.753C111.841 112.41 111.841 112.055 111.919 111.713C113.504 104.718 113.417 97.4479 111.666 90.4927C111.542 89.9929 111.584 89.4661 111.786 88.9924C111.988 88.5187 112.339 88.1238 112.786 87.8676C120.933 83.204 127.384 83.3327 132.508 88.2613C132.868 88.6129 133.104 89.0707 133.183 89.567C134.428 97.171 134.488 104.922 133.361 112.544C133.282 113.111 133.001 113.631 132.568 114.006C132.136 114.381 131.582 114.587 131.009 114.586Z" fill="#FF6584"/>
<path d="M124.228 98.8454H118.459C118.14 98.8448 117.835 98.7178 117.61 98.4922C117.385 98.2667 117.258 97.9611 117.258 97.6425C117.258 97.3239 117.385 97.0184 117.61 96.7928C117.835 96.5673 118.14 96.4403 118.459 96.4396H124.228C124.547 96.4403 124.852 96.5673 125.077 96.7928C125.302 97.0184 125.428 97.3239 125.428 97.6425C125.428 97.9611 125.302 98.2667 125.077 98.4922C124.852 98.7178 124.547 98.8448 124.228 98.8454Z" fill="white"/>
<path d="M131.282 103.599H118.459C118.14 103.599 117.834 103.472 117.608 103.246C117.383 103.021 117.256 102.715 117.256 102.396C117.256 102.077 117.383 101.771 117.608 101.545C117.834 101.319 118.14 101.193 118.459 101.193H131.282C131.601 101.193 131.906 101.32 132.131 101.546C132.356 101.771 132.483 102.077 132.483 102.396C132.483 102.714 132.356 103.02 132.131 103.245C131.906 103.471 131.601 103.598 131.282 103.599Z" fill="white"/>
</svg>
