<svg width="16" height="16" viewBox="0 0 16 16" fill="none" xmlns="http://www.w3.org/2000/svg">
<path d="M8 0C8.21217 0 8.41566 0.0842854 8.56569 0.234315C8.71571 0.384344 8.8 0.587827 8.8 0.8V3.2C8.8 3.41217 8.71571 3.61566 8.56569 3.76569C8.41566 3.91571 8.21217 4 8 4C7.78783 4 7.58434 3.91571 7.43431 3.76569C7.28429 3.61566 7.2 3.41217 7.2 3.2V0.8C7.2 0.587827 7.28429 0.384344 7.43431 0.234315C7.58434 0.0842854 7.78783 0 8 0ZM8 12C8.21217 12 8.41566 12.0843 8.56569 12.2343C8.71571 12.3843 8.8 12.5878 8.8 12.8V15.2C8.8 15.4122 8.71571 15.6157 8.56569 15.7657C8.41566 15.9157 8.21217 16 8 16C7.78783 16 7.58434 15.9157 7.43431 15.7657C7.28429 15.6157 7.2 15.4122 7.2 15.2V12.8C7.2 12.5878 7.28429 12.3843 7.43431 12.2343C7.58434 12.0843 7.78783 12 8 12ZM16 8C16 8.21217 15.9157 8.41566 15.7657 8.56569C15.6157 8.71571 15.4122 8.8 15.2 8.8H12.8C12.5878 8.8 12.3843 8.71571 12.2343 8.56569C12.0843 8.41566 12 8.21217 12 8C12 7.78783 12.0843 7.58434 12.2343 7.43431C12.3843 7.28429 12.5878 7.2 12.8 7.2H15.2C15.4122 7.2 15.6157 7.28429 15.7657 7.43431C15.9157 7.58434 16 7.78783 16 8ZM4 8C4 8.21217 3.91571 8.41566 3.76569 8.56569C3.61566 8.71571 3.41217 8.8 3.2 8.8H0.8C0.587827 8.8 0.384344 8.71571 0.234315 8.56569C0.0842854 8.41566 0 8.21217 0 8C0 7.78783 0.0842854 7.58434 0.234315 7.43431C0.384344 7.28429 0.587827 7.2 0.8 7.2H3.2C3.41217 7.2 3.61566 7.28429 3.76569 7.43431C3.91571 7.58434 4 7.78783 4 8ZM13.6568 13.6568C13.5068 13.8068 13.3033 13.891 13.0912 13.891C12.8791 13.891 12.6756 13.8068 12.5256 13.6568L10.8288 11.96C10.6831 11.8091 10.6024 11.607 10.6043 11.3973C10.6061 11.1875 10.6902 10.9869 10.8385 10.8385C10.9869 10.6902 11.1875 10.6061 11.3973 10.6043C11.607 10.6024 11.8091 10.6831 11.96 10.8288L13.6568 12.5248C13.7312 12.5991 13.7902 12.6873 13.8304 12.7844C13.8707 12.8816 13.8914 12.9857 13.8914 13.0908C13.8914 13.1959 13.8707 13.3 13.8304 13.3972C13.7902 13.4943 13.7312 13.5825 13.6568 13.6568ZM5.1712 5.1712C5.02118 5.32118 4.81773 5.40543 4.6056 5.40543C4.39347 5.40543 4.19002 5.32118 4.04 5.1712L2.344 3.4752C2.19389 3.32519 2.10951 3.1217 2.10944 2.90948C2.10936 2.69727 2.19359 2.49371 2.3436 2.3436C2.49361 2.19349 2.6971 2.10911 2.90932 2.10904C3.12153 2.10896 3.32509 2.19319 3.4752 2.3432L5.1712 4.04C5.32118 4.19002 5.40543 4.39347 5.40543 4.6056C5.40543 4.81773 5.32118 5.02118 5.1712 5.1712ZM2.344 13.6568C2.19402 13.5068 2.10977 13.3033 2.10977 13.0912C2.10977 12.8791 2.19402 12.6756 2.344 12.5256L4.0408 10.8288C4.1146 10.7524 4.20287 10.6914 4.30048 10.6495C4.39808 10.6076 4.50306 10.5855 4.60928 10.5846C4.7155 10.5837 4.82085 10.6039 4.91916 10.6441C5.01748 10.6844 5.1068 10.7438 5.18192 10.8189C5.25703 10.894 5.31643 10.9833 5.35666 11.0816C5.39688 11.18 5.41712 11.2853 5.4162 11.3915C5.41528 11.4977 5.39321 11.6027 5.35128 11.7003C5.30935 11.7979 5.24841 11.8862 5.172 11.96L3.476 13.6568C3.4017 13.7312 3.31347 13.7902 3.21635 13.8304C3.11923 13.8707 3.01513 13.8914 2.91 13.8914C2.80487 13.8914 2.70077 13.8707 2.60365 13.8304C2.50653 13.7902 2.4183 13.7312 2.344 13.6568ZM10.8288 5.1712C10.6788 5.02118 10.5946 4.81773 10.5946 4.6056C10.5946 4.39347 10.6788 4.19002 10.8288 4.04L12.5248 2.3432C12.6748 2.19309 12.8783 2.10871 13.0905 2.10864C13.3027 2.10856 13.5063 2.19279 13.6564 2.3428C13.8065 2.49281 13.8909 2.6963 13.891 2.90852C13.891 3.12073 13.8068 3.32429 13.6568 3.4744L11.96 5.1712C11.81 5.32118 11.6065 5.40543 11.3944 5.40543C11.1823 5.40543 10.9788 5.32118 10.8288 5.1712Z" fill="#F3D11E"/>
</svg>
