<svg width="450" height="350" viewBox="0 0 450 350" fill="none" xmlns="http://www.w3.org/2000/svg">
<path opacity="0.2" d="M126.082 248.709C64.2797 248.709 14 198.429 14 136.626C14 74.8238 64.2797 24.5441 126.082 24.5441C144.04 24.5625 161.731 28.886 177.673 37.152C193.615 45.418 207.342 57.3856 217.705 72.0513L216.645 72.8005C206.402 58.3043 192.833 46.475 177.076 38.3045C161.319 30.134 143.832 25.8605 126.082 25.8422C64.996 25.8422 15.2981 75.5401 15.2981 136.626C15.2981 197.713 64.996 247.411 126.082 247.411C143.099 247.466 159.897 243.575 175.156 236.044C190.416 228.513 203.722 217.547 214.028 204.006L215.057 204.796C204.63 218.495 191.169 229.59 175.731 237.209C160.293 244.829 143.298 248.765 126.082 248.709V248.709Z" fill="#4B5059"/>
<path d="M174.584 113.184L173.284 111.884L174.584 110.584C174.642 110.527 174.687 110.46 174.718 110.385C174.749 110.311 174.765 110.231 174.765 110.15C174.765 110.07 174.75 109.99 174.719 109.915C174.688 109.841 174.643 109.773 174.586 109.716C174.529 109.659 174.461 109.614 174.387 109.583C174.312 109.552 174.232 109.536 174.151 109.537C174.071 109.537 173.991 109.553 173.917 109.584C173.842 109.615 173.775 109.66 173.718 109.718L172.418 111.018L171.118 109.718C171.003 109.603 170.847 109.538 170.684 109.538C170.522 109.538 170.366 109.603 170.251 109.718C170.136 109.832 170.071 109.988 170.071 110.151C170.071 110.313 170.136 110.469 170.251 110.584L171.551 111.884L170.251 113.184C170.136 113.299 170.072 113.455 170.073 113.617C170.073 113.78 170.138 113.935 170.252 114.05C170.367 114.164 170.522 114.229 170.685 114.229C170.847 114.23 171.002 114.165 171.118 114.051L172.418 112.751L173.718 114.051C173.775 114.108 173.842 114.153 173.917 114.184C173.991 114.215 174.071 114.231 174.151 114.231C174.232 114.231 174.311 114.215 174.386 114.184C174.46 114.153 174.527 114.108 174.584 114.051C174.641 113.994 174.686 113.927 174.717 113.852C174.748 113.778 174.764 113.698 174.764 113.618C174.764 113.537 174.748 113.458 174.717 113.383C174.686 113.309 174.641 113.241 174.584 113.184Z" fill="white"/>
<path d="M141.448 44.7278C148.276 44.7278 153.812 39.1923 153.812 32.3639C153.812 25.5355 148.276 20 141.448 20C134.619 20 129.084 25.5355 129.084 32.3639C129.084 39.1923 134.619 44.7278 141.448 44.7278Z" fill="#D3D4D6"/>
<path d="M139.834 38.7996C139.621 38.7996 139.41 38.7499 139.219 38.6544C139.028 38.5588 138.862 38.4202 138.734 38.2493L135.361 33.7519C135.253 33.6074 135.174 33.443 135.129 33.268C135.084 33.093 135.074 32.911 135.1 32.7322C135.125 32.5534 135.186 32.3814 135.278 32.226C135.37 32.0706 135.492 31.9348 135.636 31.8265C135.781 31.7181 135.945 31.6393 136.12 31.5945C136.295 31.5496 136.477 31.5397 136.656 31.5653C136.835 31.5908 137.007 31.6513 137.162 31.7434C137.317 31.8354 137.453 31.9571 137.561 32.1016L139.768 35.0437L145.436 26.5421C145.64 26.2413 145.954 26.0331 146.31 25.9631C146.666 25.893 147.036 25.9668 147.338 26.1683C147.64 26.3697 147.851 26.6825 147.923 27.0384C147.995 27.3943 147.924 27.7644 147.725 28.0679L140.979 38.1871C140.857 38.3701 140.692 38.5212 140.5 38.6277C140.308 38.7342 140.092 38.793 139.872 38.7991L139.834 38.7996Z" fill="#3F3D56"/>
<path opacity="0.2" d="M156.659 54.6677H126.927C125.11 54.6677 123.637 56.1409 123.637 57.9582V59.1424C123.637 60.9596 125.11 62.4328 126.927 62.4328H156.659C158.476 62.4328 159.95 60.9596 159.95 59.1424V57.9582C159.95 56.1409 158.476 54.6677 156.659 54.6677Z" fill="#3F3D56"/>
<path opacity="0.2" d="M175.101 70.1993H108.485C106.668 70.1993 105.195 71.6725 105.195 73.4898V74.674C105.195 76.4912 106.668 77.9644 108.485 77.9644H175.101C176.919 77.9644 178.392 76.4912 178.392 74.674V73.4898C178.392 71.6725 176.919 70.1993 175.101 70.1993Z" fill="#3F3D56"/>
<path opacity="0.2" d="M175.101 85.731H108.485C106.668 85.731 105.195 87.2041 105.195 89.0214V90.2056C105.195 92.0229 106.668 93.496 108.485 93.496H175.101C176.919 93.496 178.392 92.0229 178.392 90.2056V89.0214C178.392 87.2041 176.919 85.731 175.101 85.731Z" fill="#3F3D56"/>
<path d="M134.582 251.314C133.353 251.314 132.152 250.95 131.13 250.267C130.109 249.584 129.312 248.614 128.842 247.479C128.372 246.344 128.249 245.094 128.489 243.889C128.728 242.684 129.32 241.577 130.189 240.708C131.058 239.839 132.165 239.248 133.37 239.008C134.575 238.768 135.824 238.891 136.96 239.361C138.095 239.832 139.065 240.628 139.748 241.65C140.43 242.671 140.795 243.873 140.795 245.101C140.795 246.749 140.14 248.329 138.975 249.494C137.81 250.66 136.23 251.314 134.582 251.314V251.314Z" fill="#3F3D56"/>
<path d="M136.75 246.402L135.45 245.102L136.75 243.802C136.865 243.687 136.929 243.532 136.929 243.369C136.929 243.206 136.865 243.051 136.75 242.936C136.635 242.821 136.479 242.756 136.317 242.756C136.154 242.756 135.998 242.821 135.883 242.936L134.583 244.236L133.283 242.936C133.168 242.821 133.012 242.756 132.85 242.756C132.687 242.756 132.531 242.821 132.416 242.936C132.301 243.051 132.237 243.206 132.237 243.369C132.237 243.532 132.301 243.687 132.416 243.802L133.716 245.102L132.416 246.402C132.301 246.517 132.237 246.673 132.237 246.836C132.237 246.998 132.301 247.154 132.416 247.269C132.531 247.384 132.687 247.449 132.85 247.449C133.012 247.449 133.168 247.384 133.283 247.269L134.583 245.969L135.883 247.269C135.998 247.384 136.154 247.449 136.317 247.449C136.479 247.449 136.635 247.384 136.75 247.269C136.865 247.154 136.929 246.998 136.929 246.836C136.929 246.673 136.865 246.517 136.75 246.402V246.402Z" fill="white"/>
<path opacity="0.2" d="M103.684 177.947C110.512 177.947 116.048 172.412 116.048 165.583C116.048 158.755 110.512 153.219 103.684 153.219C96.8553 153.219 91.3198 158.755 91.3198 165.583C91.3198 172.412 96.8553 177.947 103.684 177.947Z" fill="#212630"/>
<path d="M101.997 172.018C101.784 172.018 101.573 171.968 101.382 171.873C101.191 171.777 101.025 171.639 100.897 171.468L97.5241 166.97C97.4157 166.826 97.3368 166.661 97.292 166.486C97.2472 166.311 97.2373 166.129 97.2629 165.951C97.2884 165.772 97.3489 165.6 97.4409 165.444C97.5329 165.289 97.6547 165.153 97.7992 165.045C97.9437 164.937 98.1081 164.858 98.283 164.813C98.458 164.768 98.6401 164.758 98.8188 164.784C98.9976 164.809 99.1696 164.87 99.325 164.962C99.4804 165.054 99.6162 165.176 99.7246 165.32L101.931 168.262L107.599 159.761C107.699 159.609 107.827 159.479 107.978 159.377C108.128 159.275 108.297 159.204 108.474 159.168C108.652 159.132 108.835 159.131 109.013 159.166C109.191 159.201 109.361 159.271 109.511 159.371C109.662 159.472 109.792 159.602 109.893 159.752C109.993 159.903 110.063 160.073 110.098 160.251C110.133 160.429 110.132 160.612 110.096 160.789C110.06 160.967 109.989 161.136 109.888 161.286L103.142 171.406C103.02 171.589 102.856 171.74 102.663 171.846C102.471 171.953 102.255 172.011 102.036 172.018L101.997 172.018Z" fill="#3F3D56"/>
<path opacity="0.2" d="M118.822 187.887H89.0902C87.273 187.887 85.7998 189.36 85.7998 191.178V192.362C85.7998 194.179 87.273 195.652 89.0902 195.652H118.822C120.639 195.652 122.113 194.179 122.113 192.362V191.178C122.113 189.36 120.639 187.887 118.822 187.887Z" fill="#3F3D56"/>
<path opacity="0.2" d="M137.265 203.419H70.6488C68.8316 203.419 67.3584 204.892 67.3584 206.709V207.893C67.3584 209.711 68.8316 211.184 70.6488 211.184H137.265C139.082 211.184 140.555 209.711 140.555 207.893V206.709C140.555 204.892 139.082 203.419 137.265 203.419Z" fill="#3F3D56"/>
<path opacity="0.2" d="M137.265 218.95H70.6488C68.8316 218.95 67.3584 220.424 67.3584 222.241V223.425C67.3584 225.242 68.8316 226.716 70.6488 226.716H137.265C139.082 226.716 140.555 225.242 140.555 223.425V222.241C140.555 220.424 139.082 218.95 137.265 218.95Z" fill="#3F3D56"/>
<path d="M263.105 224.806C261.408 224.806 259.749 224.303 258.338 223.36C256.927 222.417 255.828 221.077 255.178 219.51C254.529 217.942 254.359 216.217 254.69 214.553C255.021 212.888 255.838 211.36 257.038 210.16C258.238 208.96 259.767 208.143 261.431 207.812C263.095 207.481 264.82 207.651 266.388 208.3C267.956 208.949 269.296 210.049 270.238 211.46C271.181 212.871 271.684 214.53 271.684 216.226C271.684 218.502 270.78 220.684 269.171 222.293C267.562 223.902 265.38 224.806 263.105 224.806V224.806Z" fill="#3F3D56"/>
<path d="M266.096 218.024L264.3 216.229L266.096 214.434C266.254 214.275 266.343 214.06 266.343 213.835C266.343 213.611 266.254 213.395 266.096 213.237C265.937 213.078 265.722 212.989 265.497 212.989C265.273 212.989 265.057 213.078 264.899 213.237L263.103 215.032L261.308 213.237C261.149 213.078 260.934 212.989 260.71 212.989C260.485 212.989 260.27 213.078 260.111 213.237C259.952 213.395 259.863 213.611 259.863 213.835C259.863 214.06 259.952 214.275 260.111 214.434L261.906 216.229L260.111 218.024C259.952 218.183 259.863 218.398 259.863 218.623C259.863 218.847 259.952 219.062 260.111 219.221C260.27 219.38 260.485 219.469 260.71 219.469C260.934 219.469 261.149 219.38 261.308 219.221L263.103 217.426L264.899 219.221C265.057 219.38 265.273 219.469 265.497 219.469C265.722 219.469 265.937 219.38 266.095 219.221C266.254 219.062 266.343 218.847 266.343 218.623C266.343 218.398 266.254 218.183 266.095 218.024L266.096 218.024Z" fill="white"/>
<path d="M221.877 123.679C233.615 123.679 243.131 114.163 243.131 102.425C243.131 90.6865 233.615 81.1707 221.877 81.1707C210.138 81.1707 200.623 90.6865 200.623 102.425C200.623 114.163 210.138 123.679 221.877 123.679Z" fill="#0B9BE3"/>
<path d="M247.883 137.222H204.32C202.502 137.222 201.029 138.695 201.029 140.513V144.655C201.029 146.472 202.502 147.945 204.32 147.945H247.883C249.701 147.945 251.174 146.472 251.174 144.655V140.513C251.174 138.695 249.701 137.222 247.883 137.222Z" fill="#3F3D56"/>
<path d="M273.351 158.667H178.853C177.036 158.667 175.563 160.14 175.563 161.957V166.099C175.563 167.916 177.036 169.39 178.853 169.39H273.351C275.168 169.39 276.641 167.916 276.641 166.099V161.957C276.641 160.14 275.168 158.667 273.351 158.667Z" fill="#3F3D56"/>
<path d="M273.351 180.115H178.853C177.036 180.115 175.563 181.589 175.563 183.406V187.548C175.563 189.365 177.036 190.838 178.853 190.838H273.351C275.168 190.838 276.641 189.365 276.641 187.548V183.406C276.641 181.589 275.168 180.115 273.351 180.115Z" fill="#3F3D56"/>
<path d="M306.518 320.931L298.239 320.93L294.3 288.995L306.52 288.995L306.518 320.931Z" fill="#FFB6B6"/>
<path d="M306.298 318.225L297.457 314.629L297.204 314.526L292.323 318.225C289.567 318.226 286.924 319.321 284.976 321.269C283.027 323.218 281.932 325.861 281.932 328.617V328.954H308.628V318.225H306.298Z" fill="#2F2E41"/>
<path d="M376.5 313.996L368.593 316.453L355.353 287.124L367.023 283.499L376.5 313.996Z" fill="#FFB6B6"/>
<path d="M375.487 311.48L365.978 310.67L365.705 310.646L362.142 315.627C359.511 316.445 357.312 318.275 356.029 320.715C354.747 323.154 354.485 326.003 355.303 328.634L355.403 328.957L380.896 321.034L377.712 310.788L375.487 311.48Z" fill="#2F2E41"/>
<path d="M343.372 157.334L346.739 166.912V172.089L346.27 177.782L351.482 196.769L355.57 238.639L376.146 300.62L360.369 305.163L320.088 203.894L307.366 306.325L292.938 305.94C292.938 305.94 290.47 299.971 291.119 296.725C291.768 293.48 291.768 297.374 291.768 293.48C291.768 289.586 288.954 291.277 291.01 288.16C293.066 285.042 292.81 282.313 292.938 280.432C293.066 278.551 291.768 202.611 291.768 200.015C291.768 197.418 291.318 197.987 291.543 195.431C291.768 192.875 294.62 193.926 293.843 189.506C293.066 185.086 292.81 185.859 292.938 182.552C293.066 179.244 294.855 159.854 294.855 159.854L343.372 157.334Z" fill="#2F2E41"/>
<path d="M289.374 160.448L318.297 132.554L326.314 109.855L314.489 104.713C308.415 110.531 301.85 128.653 301.85 128.653L281.946 153.975C281.791 154.029 281.636 154.085 281.484 154.152C280.587 154.548 279.808 155.168 279.221 155.952C278.634 156.737 278.259 157.659 278.133 158.631C278.007 159.603 278.134 160.59 278.501 161.499C278.868 162.407 279.463 163.205 280.229 163.816C280.995 164.427 281.906 164.831 282.873 164.987C283.84 165.143 284.831 165.047 285.751 164.709C286.67 164.37 287.487 163.8 288.121 163.054C288.756 162.307 289.187 161.41 289.374 160.448V160.448Z" fill="#FFB8B8"/>
<path d="M311.162 107.25L326.161 112.012L326.218 112.002C331.8 111.067 336.433 101.949 339.336 94.4652C340.291 91.9965 340.273 89.2573 339.286 86.8013C338.299 84.3453 336.416 82.3558 334.018 81.2349C332.243 80.4199 330.276 80.1176 328.339 80.362C326.402 80.6064 324.571 81.3879 323.055 82.618L315.353 88.9116L311.162 107.25Z" fill="#497AD4"/>
<path d="M345.921 169.636L346.009 169.52C350.689 163.313 344.288 147.943 343.32 145.714L347.672 144.425L346.913 136.141L346.548 132.446L349.931 129.233L349.943 129.151L352.269 112.593L355.314 101.634C356.461 97.4908 356.485 93.1171 355.384 88.9615C354.282 84.806 352.095 81.0185 349.046 77.9877L342.823 71.8087L335.366 60.1379L322.865 59.8152L318.37 67.801C314.189 68.6542 310.44 70.947 307.776 74.2799C305.112 77.6129 303.702 81.7748 303.791 86.0406L304.214 107.3L299.729 133.641L299.603 138.426L295.2 143.072L296.014 147.769L292.721 149.081L291.109 155.755C290.494 156.525 286.43 161.662 286.393 163.095C286.387 163.31 286.54 163.521 286.875 163.761C289.506 165.643 304.209 169.721 310.826 167.269C317.874 164.66 345.499 169.561 345.778 169.61L345.921 169.636Z" fill="#497AD4"/>
<path d="M315.275 102.241L308.889 89.5095C299.62 90.1427 281.224 100.86 281.224 100.86L246.417 108.24C245.386 107.843 244.268 107.726 243.177 107.898C242.086 108.071 241.06 108.528 240.201 109.224C239.343 109.919 238.683 110.828 238.288 111.86C237.893 112.892 237.777 114.009 237.951 115.1C238.125 116.191 238.583 117.217 239.279 118.074C239.976 118.932 240.886 119.59 241.918 119.984C242.95 120.378 244.068 120.493 245.159 120.318C246.249 120.143 247.274 119.683 248.131 118.985L292.408 115.812L315.275 102.241Z" fill="#FFB8B8"/>
<path d="M312.699 104.331L329.377 91.9365L332.314 81.3498C332.883 79.2693 332.859 77.0712 332.245 75.0037C331.63 72.9362 330.45 71.0818 328.836 69.6501V69.6501C326.637 67.724 323.788 66.7051 320.865 66.7993C317.943 66.8936 315.165 68.0941 313.094 70.158C306.818 76.4224 299.66 85.1618 301.197 91.222L301.213 91.2834L312.699 104.331Z" fill="#497AD4"/>
<path d="M329.526 56.9222C337.717 56.9222 344.356 50.2825 344.356 42.0919C344.356 33.9014 337.717 27.2616 329.526 27.2616C321.336 27.2616 314.696 33.9014 314.696 42.0919C314.696 50.2825 321.336 56.9222 329.526 56.9222Z" fill="#FFB8B8"/>
<path d="M339.286 57.6024C336.805 56.4373 333.908 57.1453 331.169 57.2531C328.431 57.3609 325.113 56.3285 324.532 53.6502C324.102 51.6699 325.394 49.4994 324.58 47.6435C323.693 45.6197 321.029 45.3317 318.893 44.765C316.216 43.9914 313.855 42.3846 312.152 40.178C310.45 37.9714 309.496 35.2797 309.427 32.4936C309.279 33.5994 311.171 33.9626 311.792 33.036C312.414 32.1095 311.986 30.827 311.3 29.9466C310.615 29.0661 309.69 28.363 309.173 27.3742C308.657 26.3854 308.757 24.9169 309.766 24.4411C310.283 25.485 311.016 26.4074 311.916 27.1475C312.815 27.8876 313.862 28.4285 314.986 28.7346C314.527 27.3402 315.176 25.7727 316.22 24.7413C317.33 23.7751 318.609 23.0221 319.992 22.5202C323.411 21.0383 327.402 19.5637 330.713 21.2735C331.567 21.7233 332.309 22.3604 332.883 23.1371C333.457 23.9139 333.848 24.8103 334.027 25.7594C340.15 26.2772 346.439 32.9108 346.09 39.0465C345.715 45.6518 345.441 46.1862 339.942 57.3015" fill="#2F2E41"/>
<path d="M435.198 329.801L230.511 330C230.306 329.999 230.111 329.917 229.967 329.772C229.823 329.627 229.742 329.431 229.742 329.227C229.742 329.023 229.823 328.827 229.967 328.682C230.111 328.537 230.306 328.455 230.511 328.454L435.198 328.255C435.403 328.256 435.598 328.338 435.742 328.483C435.886 328.627 435.967 328.823 435.967 329.028C435.967 329.232 435.886 329.428 435.742 329.573C435.598 329.718 435.403 329.8 435.198 329.801V329.801Z" fill="#CBCBCB"/>
</svg>
