<svg width="450" height="350" viewBox="0 0 450 350" fill="none" xmlns="http://www.w3.org/2000/svg">
<path d="M124.105 246.593C64.4956 246.593 16 198.097 16 138.488C16 78.8784 64.4955 30.3828 124.105 30.3828C141.425 30.4006 158.489 34.5706 173.865 42.5433C189.241 50.516 202.482 62.0589 212.477 76.2043L211.454 76.9269C201.575 62.9451 188.487 51.5355 173.289 43.655C158.091 35.7744 141.225 31.6525 124.105 31.6349C65.1864 31.6349 17.2521 79.5692 17.2521 138.488C17.2521 197.406 65.1864 245.341 124.105 245.341C140.518 245.394 156.72 241.642 171.438 234.378C186.156 227.114 198.989 216.537 208.93 203.477L209.923 204.238C199.866 217.451 186.882 228.153 171.992 235.502C157.102 242.851 140.71 246.647 124.105 246.593V246.593Z" fill="#4B5059"/>
<path d="M168.797 120.614C167.612 120.614 166.453 120.262 165.468 119.604C164.482 118.945 163.714 118.01 163.261 116.915C162.807 115.82 162.689 114.615 162.92 113.452C163.151 112.29 163.722 111.222 164.56 110.384C165.398 109.546 166.466 108.975 167.628 108.744C168.79 108.513 169.995 108.632 171.09 109.085C172.185 109.539 173.121 110.307 173.78 111.292C174.438 112.278 174.789 113.436 174.789 114.621C174.789 116.211 174.158 117.735 173.034 118.859C171.911 119.982 170.386 120.614 168.797 120.614V120.614Z" fill="#3F3D56"/>
<path d="M170.886 115.878L169.632 114.624L170.886 113.37C170.941 113.315 170.985 113.25 171.015 113.178C171.045 113.106 171.061 113.029 171.061 112.951C171.061 112.874 171.046 112.797 171.016 112.725C170.986 112.653 170.943 112.588 170.888 112.533C170.833 112.478 170.767 112.434 170.695 112.404C170.623 112.374 170.546 112.359 170.469 112.359C170.391 112.36 170.314 112.375 170.242 112.405C170.17 112.435 170.105 112.479 170.05 112.534L168.796 113.788L167.542 112.534C167.431 112.423 167.281 112.361 167.124 112.361C166.968 112.361 166.817 112.423 166.706 112.534C166.595 112.645 166.533 112.795 166.533 112.952C166.533 113.109 166.595 113.259 166.706 113.37L167.96 114.624L166.706 115.878C166.596 115.989 166.534 116.139 166.535 116.295C166.535 116.452 166.597 116.602 166.708 116.712C166.818 116.823 166.968 116.885 167.125 116.885C167.281 116.886 167.431 116.824 167.542 116.714L168.796 115.46L170.05 116.714C170.105 116.769 170.17 116.812 170.242 116.842C170.314 116.872 170.391 116.887 170.468 116.887C170.546 116.887 170.623 116.872 170.694 116.842C170.766 116.812 170.831 116.769 170.886 116.714C170.941 116.659 170.985 116.594 171.014 116.522C171.044 116.45 171.059 116.373 171.059 116.296C171.059 116.218 171.044 116.141 171.014 116.07C170.985 115.998 170.941 115.933 170.886 115.878Z" fill="white"/>
<path d="M138.995 49.8503C145.582 49.8503 150.921 44.5112 150.921 37.9251C150.921 31.3391 145.582 26 138.995 26C132.409 26 127.07 31.3391 127.07 37.9251C127.07 44.5112 132.409 49.8503 138.995 49.8503Z" fill="#3F3D56"/>
<path d="M137.369 44.1325C137.163 44.1325 136.96 44.0845 136.776 43.9924C136.591 43.9003 136.431 43.7665 136.308 43.6017L133.054 39.2639C132.95 39.1245 132.874 38.9659 132.831 38.7972C132.787 38.6284 132.778 38.4528 132.802 38.2804C132.827 38.1079 132.885 37.942 132.974 37.7921C133.063 37.6423 133.18 37.5113 133.32 37.4068C133.459 37.3023 133.618 37.2262 133.786 37.183C133.955 37.1398 134.131 37.1302 134.303 37.1549C134.476 37.1795 134.642 37.2379 134.791 37.3266C134.941 37.4154 135.072 37.5328 135.177 37.6722L137.305 40.5099L142.772 32.31C142.968 32.0198 143.271 31.819 143.615 31.7515C143.959 31.6839 144.315 31.755 144.607 31.9494C144.898 32.1437 145.101 32.4454 145.171 32.7887C145.241 33.1319 145.172 33.4889 144.979 33.7816L138.473 43.5417C138.355 43.7182 138.197 43.864 138.011 43.9667C137.825 44.0694 137.618 44.1261 137.406 44.132L137.369 44.1325Z" fill="white"/>
<path d="M153.597 59.4375H124.92C123.167 59.4375 121.746 60.8584 121.746 62.6112V63.7534C121.746 65.5061 123.167 66.927 124.92 66.927H153.597C155.35 66.927 156.77 65.5061 156.77 63.7534V62.6112C156.77 60.8584 155.35 59.4375 153.597 59.4375Z" fill="#3F3D56"/>
<path d="M171.385 74.418H107.133C105.38 74.418 103.959 75.8389 103.959 77.5917V78.7338C103.959 80.4866 105.38 81.9075 107.133 81.9075H171.385C173.138 81.9075 174.559 80.4866 174.559 78.7338V77.5917C174.559 75.8389 173.138 74.418 171.385 74.418Z" fill="#3F3D56"/>
<path d="M171.385 89.3984H107.133C105.38 89.3984 103.959 90.8193 103.959 92.5721V93.7143C103.959 95.4671 105.38 96.888 107.133 96.888H171.385C173.138 96.888 174.559 95.4671 174.559 93.7143V92.5721C174.559 90.8193 173.138 89.3984 171.385 89.3984Z" fill="#3F3D56"/>
<path d="M132.303 249.106C131.118 249.106 129.959 248.754 128.974 248.096C127.988 247.438 127.22 246.502 126.767 245.407C126.313 244.312 126.194 243.107 126.426 241.944C126.657 240.782 127.228 239.714 128.066 238.876C128.904 238.038 129.971 237.467 131.134 237.236C132.296 237.005 133.501 237.124 134.596 237.577C135.691 238.031 136.627 238.799 137.285 239.784C137.944 240.77 138.295 241.928 138.295 243.114C138.295 244.703 137.664 246.227 136.54 247.351C135.416 248.475 133.892 249.106 132.303 249.106V249.106Z" fill="#3F3D56"/>
<path d="M134.394 244.369L133.14 243.115L134.394 241.861C134.505 241.75 134.567 241.599 134.567 241.443C134.567 241.286 134.505 241.136 134.394 241.025C134.283 240.914 134.133 240.852 133.976 240.852C133.819 240.852 133.669 240.914 133.558 241.025L132.304 242.279L131.05 241.025C130.939 240.914 130.789 240.852 130.632 240.852C130.475 240.852 130.325 240.914 130.214 241.025C130.103 241.136 130.041 241.286 130.041 241.443C130.041 241.599 130.103 241.75 130.214 241.861L131.468 243.115L130.214 244.369C130.103 244.479 130.041 244.63 130.041 244.787C130.041 244.943 130.103 245.094 130.214 245.204C130.325 245.315 130.475 245.378 130.632 245.378C130.789 245.378 130.939 245.315 131.05 245.204L132.304 243.951L133.558 245.204C133.669 245.315 133.819 245.378 133.976 245.378C134.133 245.378 134.283 245.315 134.394 245.204C134.505 245.094 134.567 244.943 134.567 244.787C134.567 244.63 134.505 244.479 134.394 244.369V244.369Z" fill="white"/>
<path d="M102.501 178.342C109.087 178.342 114.426 173.003 114.426 166.417C114.426 159.831 109.087 154.492 102.501 154.492C95.9152 154.492 90.5762 159.831 90.5762 166.417C90.5762 173.003 95.9152 178.342 102.501 178.342Z" fill="#212630"/>
<path d="M100.875 172.624C100.669 172.624 100.466 172.576 100.281 172.484C100.097 172.391 99.9371 172.258 99.8136 172.093L96.5602 167.755C96.4557 167.616 96.3796 167.457 96.3364 167.288C96.2932 167.12 96.2836 166.944 96.3083 166.772C96.3329 166.599 96.3913 166.433 96.48 166.283C96.5688 166.133 96.6862 166.003 96.8256 165.898C96.9649 165.793 97.1235 165.717 97.2922 165.674C97.461 165.631 97.6366 165.621 97.809 165.646C97.9815 165.671 98.1474 165.729 98.2973 165.818C98.4472 165.907 98.5781 166.024 98.6826 166.163L100.811 169.001L106.278 160.801C106.374 160.655 106.498 160.529 106.643 160.431C106.788 160.333 106.95 160.265 107.122 160.23C107.293 160.195 107.47 160.194 107.642 160.228C107.813 160.262 107.977 160.329 108.122 160.426C108.268 160.523 108.393 160.648 108.49 160.793C108.587 160.939 108.654 161.102 108.688 161.274C108.722 161.446 108.721 161.622 108.686 161.794C108.652 161.965 108.583 162.128 108.485 162.273L101.978 172.033C101.861 172.209 101.702 172.355 101.517 172.458C101.331 172.561 101.124 172.617 100.912 172.623L100.875 172.624Z" fill="white"/>
<path d="M117.103 187.93H88.4256C86.6729 187.93 85.252 189.351 85.252 191.103V192.246C85.252 193.998 86.6729 195.419 88.4256 195.419H117.103C118.855 195.419 120.276 193.998 120.276 192.246V191.103C120.276 189.351 118.855 187.93 117.103 187.93Z" fill="#3F3D56"/>
<path d="M134.891 202.91H70.6385C68.8858 202.91 67.4648 204.331 67.4648 206.084V207.226C67.4648 208.979 68.8858 210.4 70.6385 210.4H134.891C136.644 210.4 138.064 208.979 138.064 207.226V206.084C138.064 204.331 136.644 202.91 134.891 202.91Z" fill="#3F3D56"/>
<path d="M134.891 217.891H70.6385C68.8858 217.891 67.4648 219.312 67.4648 221.064V222.206C67.4648 223.959 68.8858 225.38 70.6385 225.38H134.891C136.644 225.38 138.064 223.959 138.064 222.206V221.064C138.064 219.312 136.644 217.891 134.891 217.891Z" fill="#3F3D56"/>
<path d="M256.265 223.538C254.629 223.538 253.029 223.053 251.668 222.144C250.307 221.234 249.246 219.942 248.62 218.43C247.994 216.918 247.83 215.254 248.149 213.649C248.469 212.044 249.257 210.569 250.414 209.412C251.571 208.255 253.046 207.467 254.651 207.147C256.256 206.828 257.92 206.992 259.432 207.618C260.944 208.244 262.236 209.305 263.146 210.666C264.055 212.027 264.54 213.627 264.54 215.263C264.54 217.458 263.668 219.563 262.116 221.115C260.565 222.666 258.46 223.538 256.265 223.538V223.538Z" fill="#3F3D56"/>
<path d="M259.15 216.997L257.418 215.266L259.15 213.534C259.303 213.381 259.389 213.173 259.389 212.957C259.389 212.74 259.303 212.533 259.15 212.38C258.997 212.227 258.789 212.141 258.573 212.141C258.356 212.141 258.148 212.227 257.995 212.38L256.264 214.111L254.532 212.38C254.379 212.227 254.171 212.141 253.955 212.141C253.738 212.141 253.531 212.227 253.378 212.38C253.225 212.533 253.139 212.74 253.139 212.957C253.139 213.173 253.225 213.381 253.378 213.534L255.109 215.266L253.378 216.997C253.225 217.15 253.139 217.358 253.139 217.574C253.139 217.791 253.225 217.999 253.378 218.152C253.531 218.305 253.738 218.391 253.955 218.391C254.171 218.391 254.379 218.305 254.532 218.152L256.264 216.42L257.995 218.152C258.148 218.305 258.356 218.391 258.573 218.391C258.789 218.391 258.997 218.305 259.15 218.152C259.303 217.999 259.389 217.791 259.389 217.574C259.389 217.358 259.303 217.15 259.15 216.997L259.15 216.997Z" fill="white"/>
<path d="M216.5 133C227.822 133 237 123.822 237 112.5C237 101.178 227.822 92 216.5 92C205.178 92 196 101.178 196 112.5C196 123.822 205.178 133 216.5 133Z" fill="#20A6AF"/>
<path d="M241.584 139.062H199.566C197.813 139.062 196.393 140.483 196.393 142.236V146.231C196.393 147.984 197.813 149.405 199.566 149.405H241.584C243.337 149.405 244.758 147.984 244.758 146.231V142.236C244.758 140.483 243.337 139.062 241.584 139.062Z" fill="#3F3D56"/>
<path d="M266.148 159.746H175.004C173.251 159.746 171.83 161.167 171.83 162.92V166.915C171.83 168.668 173.251 170.088 175.004 170.088H266.148C267.9 170.088 269.321 168.668 269.321 166.915V162.92C269.321 161.167 267.9 159.746 266.148 159.746Z" fill="#3F3D56"/>
<path d="M266.148 180.434H175.004C173.251 180.434 171.83 181.855 171.83 183.607V187.602C171.83 189.355 173.251 190.776 175.004 190.776H266.148C267.9 190.776 269.321 189.355 269.321 187.602V183.607C269.321 181.855 267.9 180.434 266.148 180.434Z" fill="#3F3D56"/>
<path d="M298.139 316.253L290.153 316.252L286.354 285.449L298.14 285.45L298.139 316.253Z" fill="#FFB6B6"/>
<path d="M297.925 313.643L289.399 310.174L289.154 310.074L284.447 313.643C281.789 313.643 279.239 314.699 277.36 316.579C275.48 318.458 274.424 321.007 274.424 323.665V323.991H300.173V313.643H297.925Z" fill="#2F2E41"/>
<path d="M365.636 309.564L358.01 311.933L345.24 283.645L356.496 280.148L365.636 309.564Z" fill="#FFB6B6"/>
<path d="M364.659 307.137L355.488 306.355L355.225 306.332L351.788 311.137C349.25 311.926 347.129 313.691 345.892 316.044C344.655 318.396 344.403 321.144 345.191 323.683L345.288 323.993L369.877 316.352L366.806 306.47L364.659 307.137Z" fill="#2F2E41"/>
<path d="M333.684 158.461L336.931 167.698V172.692L336.479 178.183L341.506 196.497L345.449 236.881L365.295 296.662L350.078 301.044L311.227 203.368L298.955 302.164L285.04 301.793C285.04 301.793 282.659 296.036 283.285 292.906C283.911 289.776 283.911 293.532 283.911 289.776C283.911 286.019 281.197 287.651 283.18 284.644C285.163 281.637 284.916 279.005 285.04 277.191C285.163 275.377 283.911 202.131 283.911 199.627C283.911 197.123 283.477 197.671 283.694 195.206C283.911 192.74 286.662 193.754 285.913 189.491C285.163 185.228 284.916 185.973 285.04 182.783C285.163 179.594 286.888 160.891 286.888 160.891L333.684 158.461Z" fill="#2F2E41"/>
<path d="M281.602 161.464L309.499 134.56L317.232 112.667L305.826 107.707C299.968 113.319 293.636 130.798 293.636 130.798L274.438 155.221C274.289 155.272 274.139 155.327 273.992 155.392C273.127 155.773 272.376 156.371 271.81 157.128C271.243 157.885 270.882 158.774 270.761 159.712C270.639 160.649 270.761 161.601 271.115 162.478C271.469 163.354 272.044 164.124 272.782 164.713C273.521 165.302 274.399 165.691 275.332 165.842C276.265 165.993 277.221 165.9 278.108 165.574C278.994 165.247 279.782 164.697 280.394 163.977C281.006 163.257 281.422 162.392 281.602 161.464V161.464Z" fill="#FFB8B8"/>
<path d="M302.617 110.154L317.084 114.747L317.139 114.738C322.523 113.836 326.991 105.041 329.791 97.8227C330.712 95.4417 330.695 92.7997 329.743 90.4309C328.791 88.062 326.975 86.1431 324.662 85.0619C322.95 84.2759 321.053 83.9843 319.185 84.22C317.316 84.4558 315.551 85.2095 314.088 86.396L306.659 92.4662L302.617 110.154Z" fill="#497AD4"/>
<path d="M336.143 170.327L336.227 170.214C340.741 164.228 334.568 149.403 333.634 147.253L337.831 146.01L337.1 138.019L336.747 134.456L340.01 131.357L340.021 131.278L342.266 115.307L345.202 104.737C346.309 100.741 346.332 96.5225 345.27 92.5144C344.207 88.5064 342.098 84.8532 339.157 81.93L333.154 75.9702L325.963 64.7136L313.905 64.4023L309.569 72.1048C305.537 72.9277 301.921 75.1391 299.351 78.3538C296.782 81.5685 295.422 85.5827 295.508 89.6971L295.916 110.203L291.589 135.609L291.468 140.224L287.222 144.705L288.007 149.235L284.83 150.501L283.276 156.938C282.682 157.681 278.762 162.636 278.727 164.017C278.721 164.224 278.869 164.429 279.192 164.659C281.729 166.475 295.91 170.408 302.293 168.043C309.091 165.527 335.736 170.253 336.004 170.302L336.143 170.327Z" fill="#497AD4"/>
<path d="M306.584 105.323L300.425 93.043C291.485 93.6537 273.741 103.991 273.741 103.991L240.169 111.109C239.175 110.726 238.097 110.613 237.044 110.779C235.992 110.946 235.002 111.387 234.174 112.058C233.347 112.728 232.71 113.605 232.329 114.6C231.948 115.595 231.836 116.673 232.003 117.725C232.171 118.778 232.613 119.767 233.285 120.594C233.957 121.421 234.835 122.056 235.83 122.436C236.826 122.816 237.904 122.927 238.956 122.758C240.008 122.589 240.996 122.146 241.823 121.473L284.528 118.412L306.584 105.323Z" fill="#FFB8B8"/>
<path d="M304.1 107.338L320.186 95.3838L323.019 85.1727C323.568 83.1661 323.545 81.0459 322.952 79.0518C322.359 77.0577 321.221 75.2691 319.665 73.8882V73.8882C317.543 72.0304 314.795 71.0477 311.976 71.1386C309.157 71.2295 306.478 72.3874 304.481 74.3781C298.427 80.4202 291.523 88.8495 293.006 94.6946L293.021 94.7539L304.1 107.338Z" fill="#497AD4"/>
<path d="M320.329 61.612C328.229 61.612 334.634 55.2079 334.634 47.308C334.634 39.4081 328.229 33.0039 320.329 33.0039C312.43 33.0039 306.025 39.4081 306.025 47.308C306.025 55.2079 312.43 61.612 320.329 61.612Z" fill="#FFB8B8"/>
<path d="M329.743 62.2681C327.35 61.1443 324.556 61.8272 321.915 61.9312C319.273 62.0351 316.073 61.0394 315.513 58.4562C315.098 56.5461 316.344 54.4526 315.559 52.6626C314.703 50.7106 312.134 50.4328 310.074 49.8862C307.492 49.1401 305.214 47.5903 303.573 45.462C301.931 43.3337 301.01 40.7375 300.944 38.0503C300.801 39.1168 302.626 39.4672 303.225 38.5735C303.824 37.6798 303.412 36.4428 302.751 35.5936C302.09 34.7444 301.198 34.0662 300.699 33.1125C300.201 32.1588 300.298 30.7425 301.271 30.2835C301.77 31.2904 302.476 32.1801 303.344 32.8939C304.212 33.6077 305.221 34.1294 306.305 34.4246C305.863 33.0798 306.489 31.5678 307.496 30.5731C308.566 29.6411 309.8 28.9149 311.134 28.4308C314.431 27.0015 318.281 25.5792 321.474 27.2283C322.298 27.6621 323.014 28.2766 323.567 29.0258C324.121 29.7751 324.498 30.6397 324.671 31.5551C330.577 32.0545 336.642 38.4526 336.306 44.3707C335.944 50.7416 335.68 51.257 330.376 61.9778" fill="#2F2E41"/>
<path d="M422.252 324.807L224.828 325C224.631 324.999 224.442 324.92 224.303 324.78C224.164 324.64 224.086 324.451 224.086 324.254C224.086 324.057 224.164 323.868 224.303 323.728C224.442 323.589 224.631 323.51 224.828 323.509L422.252 323.316C422.449 323.317 422.638 323.396 422.777 323.536C422.916 323.676 422.994 323.865 422.994 324.062C422.994 324.259 422.916 324.448 422.777 324.588C422.638 324.727 422.449 324.806 422.252 324.807V324.807Z" fill="#2F2E41"/>
<path d="M433.336 322.588H207.593C207.265 322.588 207 322.323 207 321.996C207 321.669 207.265 321.403 207.593 321.403H433.336C433.663 321.403 433.929 321.669 433.929 321.996C433.929 322.323 433.663 322.588 433.336 322.588Z" fill="#5B616A"/>
<path opacity="0.3" d="M396.794 322.862V280C396.794 280 413.498 310.387 396.794 322.862Z" fill="#F1F1F1"/>
<path opacity="0.3" d="M397.826 322.854L366.252 293.868C366.252 293.868 399.933 302.113 397.826 322.854Z" fill="#F1F1F1"/>
</svg>
