<svg width="465" height="348" viewBox="0 0 465 348" fill="none" xmlns="http://www.w3.org/2000/svg">
<path d="M27.6532 168C27.2925 168 27 168.895 27 170C27 171.105 27.2925 172 27.6532 172H75.3468C75.7075 172 76 171.105 76 170C76 168.895 75.7075 168 75.3468 168H27.6532Z" fill="#E6E6E6"/>
<path d="M27.6521 16C27.2913 16.0025 26.9993 17.1238 27 18.5046C27.0007 19.8817 27.2922 20.9975 27.6521 21H75.3479C75.7087 20.9975 76.0007 19.8762 76 18.4954C75.9993 17.1183 75.7078 16.0025 75.3479 16H27.6521Z" fill="#0F90DF"/>
<path d="M242.5 48C248.851 48 254 43.0751 254 37C254 30.9249 248.851 26 242.5 26C236.149 26 231 30.9249 231 37C231 43.0751 236.149 48 242.5 48Z" fill="#20A6AF"/>
<path d="M241.523 41C241.289 41.0004 241.062 40.9238 240.875 40.7819L240.863 40.7731L238.424 38.8821C237.949 38.5129 237.86 37.8233 238.224 37.3418C238.588 36.8603 239.268 36.7692 239.743 37.1384L241.323 38.3662L245.056 33.43C245.42 32.9488 246.1 32.8577 246.575 33.2267L246.552 33.2595L246.576 33.2269C247.051 33.5964 247.14 34.2853 246.777 34.7668L242.386 40.5703C242.18 40.8413 241.861 40.9997 241.524 40.9987L241.523 41Z" fill="white"/>
<path d="M242.5 124C248.851 124 254 119.075 254 113C254 106.925 248.851 102 242.5 102C236.149 102 231 106.925 231 113C231 119.075 236.149 124 242.5 124Z" fill="#20A6AF"/>
<path d="M241.523 117C241.289 117 241.062 116.914 240.875 116.755L240.863 116.745L238.424 114.617C237.949 114.202 237.86 113.426 238.224 112.885C238.588 112.343 239.268 112.24 239.743 112.656L241.323 114.037L245.056 108.484C245.42 107.942 246.1 107.84 246.575 108.255L246.552 108.292L246.576 108.255C247.051 108.671 247.14 109.446 246.777 109.988L242.386 116.517C242.18 116.821 241.861 117 241.524 116.999L241.523 117Z" fill="white"/>
<path d="M216 124C216 125.105 215.105 126 214 126H2.00001C0.895436 126 0 125.105 0 124V78C0 76.8954 0.895431 76 2 76H214C215.105 76 216 76.8954 216 78V124Z" fill="#3F3D56"/>
<path d="M216 199C216 200.105 215.105 201 214 201H2.00001C0.895436 201 0 200.105 0 199V154C0 152.895 0.895431 152 2 152H214C215.105 152 216 152.895 216 154V199Z" fill="#3F3D56"/>
<path d="M216 48C216 49.1046 215.105 50 214 50H2.00001C0.895436 50 0 49.1046 0 48V2C0 0.895432 0.895431 0 2 0H214C215.105 0 216 0.89543 216 2V48Z" fill="#3F3D56"/>
<path d="M242 199C248.075 199 253 194.075 253 188C253 181.925 248.075 177 242 177C235.925 177 231 181.925 231 188C231 194.075 235.925 199 242 199Z" fill="#20A6AF"/>
<path d="M240.914 192C240.655 192 240.402 191.924 240.195 191.782L240.182 191.773L237.472 189.882C236.944 189.513 236.844 188.823 237.249 188.342C237.653 187.86 238.409 187.769 238.937 188.138L240.692 189.366L244.84 184.43C245.245 183.949 246.001 183.858 246.528 184.227L246.503 184.26L246.529 184.227C247.056 184.596 247.156 185.285 246.752 185.767L241.873 191.57C241.644 191.841 241.29 192 240.915 191.999L240.914 192Z" fill="white"/>
<path d="M276.479 212.525C276.341 209.011 279.078 206.051 282.592 205.913C282.966 205.899 283.342 205.917 283.713 205.969L293.988 185.81L299.793 196.034L289.146 213.61C288.432 217.072 285.045 219.299 281.583 218.585C278.686 217.987 276.576 215.481 276.479 212.525Z" fill="#FFB7B7"/>
<path d="M324.38 339.46L316.317 339.459L312.481 308.358L324.381 308.359L324.38 339.46Z" fill="#FFB7B7"/>
<path d="M326.436 347.275L300.437 347.274V346.946C300.437 341.357 304.968 336.826 310.557 336.826H310.557L326.437 336.827L326.436 347.275Z" fill="#2F2E41"/>
<path d="M368.091 339.46L360.028 339.459L356.192 308.358L368.092 308.359L368.091 339.46Z" fill="#FFB7B7"/>
<path d="M370.147 347.275L344.148 347.274V346.946C344.148 341.357 348.679 336.826 354.268 336.826H354.268L370.148 336.827L370.147 347.275Z" fill="#2F2E41"/>
<path d="M288.864 194.98L285.344 200.847C285.344 200.847 291.21 200.847 292.384 209.647L297.077 203.78L288.864 194.98Z" fill="#E5E5E5"/>
<path d="M350.464 182.661C350.464 182.661 359.85 207.301 361.61 222.554C363.37 237.807 366.304 278.287 366.304 278.287L372.17 330.5L355.744 332.847L348.704 280.047L332.864 227.834L329.344 280.047L326.41 327.567L311.157 328.154L309.984 278.874L303.53 216.1L307.05 186.18L350.464 182.661Z" fill="#2F2E41"/>
<path d="M339.023 107.861L344.89 111.967L352.517 188.82L304.997 189.994L311.451 136.607L317.317 121.354L321.552 115.755L339.023 107.861Z" fill="#487AD4"/>
<path d="M340.197 163.007L341.992 109.938C341.992 109.938 345.477 110.207 346.651 111.967C347.824 113.727 367.184 117.247 367.184 117.247L363.664 171.807C363.664 171.807 378.331 215.22 373.051 217.567C367.771 219.914 358.384 219.327 358.384 219.327L340.197 163.007Z" fill="#2F2E41"/>
<path d="M311.744 156.26L317.967 120.494L304.117 129.86L307.637 155.674L304.704 173.274C304.704 173.274 293.557 221.967 297.077 223.727C300.597 225.487 304.704 223.727 304.704 223.727L311.744 174.447V156.26Z" fill="#2F2E41"/>
<path d="M308.224 128.687L304.117 129.861L302.357 153.327L299.424 173.861L285.344 199.087C285.344 199.087 292.384 194.394 295.317 207.887L310.823 180.89L308.224 128.687Z" fill="#2F2E41"/>
<path d="M340.135 207.713C340.682 204.24 343.941 201.868 347.415 202.415C347.785 202.473 348.149 202.564 348.504 202.686L362.496 184.906L366.207 196.063L352.35 211.237C350.977 214.495 347.223 216.022 343.965 214.649C341.239 213.5 339.656 210.633 340.135 207.713Z" fill="#FFB7B7"/>
<path d="M363.957 201.434L358.677 207.887L351.637 195.567L354.57 190.287L363.957 201.434Z" fill="#E5E5E5"/>
<path d="M362.784 119.3L367.477 116.954C367.477 116.954 370.997 121.647 371.584 125.754C372.171 129.86 375.104 135.14 375.104 138.074C375.104 141.007 383.317 168.58 383.317 168.58L364.544 206.714C364.544 206.714 360.437 192.634 351.637 191.46L366.304 170.927L358.091 156.26L362.784 119.3Z" fill="#2F2E41"/>
<path d="M464.336 347.637H238.593C238.265 347.637 238 347.372 238 347.045C238 346.718 238.265 346.452 238.593 346.452H464.336C464.663 346.452 464.929 346.718 464.929 347.045C464.929 347.372 464.663 347.637 464.336 347.637Z" fill="#5B616A"/>
<path d="M427.795 347.911V305.049C427.795 305.049 444.498 335.436 427.795 347.911Z" fill="#5B616A"/>
<path d="M428.826 347.903L397.252 318.917C397.252 318.917 430.933 327.162 428.826 347.903Z" fill="#5B616A"/>
<path d="M322.53 108.833C331.399 108.833 338.588 101.643 338.588 92.7745C338.588 83.9056 331.399 76.7159 322.53 76.7159C313.661 76.7159 306.471 83.9056 306.471 92.7745C306.471 101.643 313.661 108.833 322.53 108.833Z" fill="#FFB6B6"/>
<path d="M336.557 105.113C336.557 105.113 341.314 95.4802 341.229 91.8028C341.144 88.1253 338.546 78.6621 337.449 78.038C336.352 77.414 324.527 71.4097 321.322 73.215C318.117 75.0203 312.477 81.195 306.394 82.8655C304.673 83.338 306.175 92.1772 306.175 92.1772L313.294 91.1475C313.294 91.1475 320.716 84.4836 321.037 89.0213C321.357 93.559 328.24 91.6691 328.24 91.6691L328.325 95.3465L331.142 95.4981L331.917 91.5844C331.917 91.5844 333.183 99.5633 331.547 103.713C329.911 107.863 336.557 105.113 336.557 105.113Z" fill="#2F2E41"/>
<rect x="14" y="12" width="61" height="5" rx="2.5" fill="#5B616A"/>
<rect x="14" y="88" width="61" height="5" rx="2.5" fill="#5B616A"/>
<rect x="14" y="164" width="61" height="5" rx="2.5" fill="#5B616A"/>
<rect x="164" y="12" width="5" height="5" rx="2.5" fill="#20A6AF"/>
<rect x="164" y="88" width="5" height="5" rx="2.5" fill="#20A6AF"/>
<rect x="164" y="164" width="5" height="5" rx="2.5" fill="#20A6AF"/>
<rect x="174" y="12" width="5" height="5" rx="2.5" fill="#20A6AF"/>
<rect x="174" y="88" width="5" height="5" rx="2.5" fill="#20A6AF"/>
<rect x="174" y="164" width="5" height="5" rx="2.5" fill="#20A6AF"/>
<rect x="184" y="12" width="5" height="5" rx="2.5" fill="#20A6AF"/>
<rect x="184" y="88" width="5" height="5" rx="2.5" fill="#20A6AF"/>
<rect x="184" y="164" width="5" height="5" rx="2.5" fill="#20A6AF"/>
</svg>
