<svg width="450" height="350" viewBox="0 0 450 350" fill="none" xmlns="http://www.w3.org/2000/svg">
<path d="M431.974 209.328H415.203C414.845 209.329 414.491 209.248 414.168 209.093C413.845 208.937 413.562 208.711 413.339 208.43C413.119 208.156 412.964 207.837 412.885 207.495C412.806 207.152 412.806 206.797 412.884 206.455C414.459 199.502 414.383 192.277 412.662 185.359C412.529 184.83 412.584 184.271 412.817 183.778C413.05 183.284 413.447 182.887 413.94 182.653C420.945 179.375 427.378 179.46 433.059 182.907C433.357 183.085 433.613 183.326 433.808 183.613C434.003 183.9 434.133 184.226 434.189 184.569C435.394 192.09 435.44 199.751 434.326 207.286C434.247 207.853 433.965 208.373 433.533 208.748C433.101 209.123 432.547 209.329 431.974 209.328Z" fill="#0F90DF"/>
<path d="M431.72 198.341H418.896C418.578 198.34 418.272 198.213 418.047 197.987C417.822 197.762 417.696 197.456 417.696 197.138C417.696 196.819 417.822 196.514 418.047 196.288C418.272 196.063 418.578 195.935 418.896 195.935H431.72C432.038 195.935 432.344 196.063 432.569 196.288C432.794 196.514 432.92 196.819 432.92 197.138C432.92 197.456 432.794 197.762 432.569 197.987C432.344 198.213 432.038 198.34 431.72 198.341Z" fill="white"/>
<path d="M431.72 194.122H418.896C418.578 194.121 418.272 193.994 418.047 193.769C417.822 193.543 417.696 193.238 417.696 192.919C417.696 192.6 417.822 192.295 418.047 192.069C418.272 191.844 418.578 191.717 418.896 191.716H431.72C432.038 191.717 432.344 191.844 432.569 192.069C432.794 192.295 432.92 192.6 432.92 192.919C432.92 193.238 432.794 193.543 432.569 193.769C432.344 193.994 432.038 194.121 431.72 194.122Z" fill="white"/>
<path opacity="0.07" d="M96.1197 207.647C145.339 207.647 185.239 167.746 185.239 118.527C185.239 69.3076 145.339 29.4073 96.1197 29.4073C46.9002 29.4073 7 69.3076 7 118.527C7 167.746 46.9002 207.647 96.1197 207.647Z" fill="#497AD4"/>
<path d="M199.477 205.01C208.797 205.01 216.352 197.455 216.352 188.135C216.352 178.816 208.797 171.26 199.477 171.26C190.158 171.26 182.603 178.816 182.603 188.135C182.603 197.455 190.158 205.01 199.477 205.01Z" fill="#F2F2F2"/>
<path d="M409.643 176.75L404.731 129.204L403.434 109.635L417.183 107.149C417.183 107.149 419.242 120.601 421.043 128.496C422.82 136.286 418.675 175.706 418.565 176.746C419.575 177.649 420.287 178.837 420.607 180.153C420.926 181.469 420.839 182.852 420.356 184.117C419.873 185.383 419.017 186.472 417.902 187.24C416.787 188.009 415.464 188.421 414.11 188.421C412.755 188.422 411.432 188.011 410.316 187.244C409.2 186.476 408.343 185.388 407.859 184.123C407.375 182.858 407.286 181.476 407.605 180.159C407.923 178.843 408.634 177.654 409.643 176.75Z" fill="#FFB8B8"/>
<path d="M353.459 322.739H346.465L343.137 295.76L353.46 295.761L353.459 322.739Z" fill="#FFB6B6"/>
<path d="M355.243 329.519L332.69 329.518V329.233C332.691 326.905 333.616 324.672 335.262 323.026C336.908 321.38 339.141 320.455 341.469 320.455H341.469L345.589 317.33L353.275 320.456L355.244 320.456L355.243 329.519Z" fill="#2F2E41"/>
<path d="M415.103 322.739H408.109L404.781 295.76L415.104 295.761L415.103 322.739Z" fill="#FFB6B6"/>
<path d="M416.887 329.519L394.334 329.518V329.233C394.335 326.905 395.26 324.672 396.906 323.026C398.552 321.38 400.785 320.455 403.113 320.455H403.113L407.233 317.33L414.919 320.456L416.888 320.456L416.887 329.519Z" fill="#2F2E41"/>
<path d="M404.465 178.349L410.348 234.236C410.348 234.236 418.179 290.195 416.709 297.917C415.238 305.638 417.076 306.741 417.076 306.741L403.657 305.785C403.657 305.785 404.024 301.005 401.818 298.799C399.612 296.593 400.715 289.975 400.715 289.975L374.683 198.939L358.873 246.737C358.873 246.737 356.299 299.316 355.931 300.051C355.564 300.786 354.461 310.714 354.461 310.714H340.857C340.857 310.714 342.695 304.831 340.121 302.992C337.547 301.154 335.341 302.625 337.547 299.316C339.753 296.006 340.489 291.962 339.753 290.124C339.018 288.285 339.018 280.932 339.018 280.932C339.018 280.932 340.121 181.658 346.372 178.349C352.622 175.04 404.465 178.349 404.465 178.349Z" fill="#2F2E41"/>
<path d="M376.606 65.1911C384.597 65.1911 391.075 58.7129 391.075 50.7217C391.075 42.7305 384.597 36.2523 376.606 36.2523C368.614 36.2523 362.136 42.7305 362.136 50.7217C362.136 58.7129 368.614 65.1911 376.606 65.1911Z" fill="#FFB8B8"/>
<path d="M419.501 114.734L405.271 119.838L400.936 121.391L397.773 80.9829L408.63 86.7412C408.648 86.7546 408.664 86.7707 408.678 86.7889C410.558 88.8655 412.132 91.2004 413.351 93.7227C419.305 105.827 419.501 114.734 419.501 114.734Z" fill="#497AD4"/>
<path d="M321.467 173.336C321.467 173.336 335.931 128.398 336.184 127.859C338.078 113.473 343.527 107.127 344.343 107.816L358.406 112.688C358.406 112.688 354.223 125.934 351.391 133.802C348.685 141.32 330.151 176.031 329.631 176.937C330.19 178.171 330.361 179.546 330.121 180.879C329.882 182.212 329.244 183.441 328.291 184.404C327.337 185.366 326.115 186.017 324.784 186.269C323.453 186.522 322.077 186.364 320.838 185.817C319.598 185.271 318.554 184.361 317.843 183.208C317.132 182.055 316.788 180.713 316.857 179.36C316.925 178.008 317.402 176.707 318.225 175.632C319.049 174.556 320.179 173.756 321.467 173.336Z" fill="#FFB8B8"/>
<path d="M365.162 83.5852C365.162 83.5852 352.986 77.6179 348.264 89.3379C345.171 97.2418 343.707 100.689 341.642 108.922C341.642 108.922 354.052 110.784 358.032 117.797L365.162 83.5852Z" fill="#497AD4"/>
<path d="M409.466 184.44C381.444 190.227 344.31 180.278 344.31 180.278L354.216 137.337L350.694 92.399C350.264 86.9035 353.394 81.7522 358.263 79.9268L364.987 77.4085L370.544 69.452L386.419 69.9729L392.765 78.3259L397.773 80.9828L408.63 86.7411L408.678 86.765V86.7888L405.27 119.838L403.216 139.765C403.216 139.765 409.457 162.176 408.176 165.149C406.895 168.116 408.009 166.683 408.319 168.269C408.63 169.856 409.581 169.956 409.724 173.081C409.872 176.202 409.466 184.44 409.466 184.44Z" fill="#497AD4"/>
<path d="M392.302 45.5693C391.158 44.4412 392.88 41.4548 392.554 39.8818C392.182 38.0783 390.194 38.0255 389.72 36.246C389.21 34.3316 387.17 33.2895 385.284 32.6827C380.45 31.1359 375.292 30.8996 370.336 31.9981C368.143 32.5336 365.984 33.1988 363.869 33.9902C362.41 34.5039 363.817 33.106 362.358 33.6197C361.805 33.7429 361.318 34.0663 360.989 34.5277C360.727 35.0239 361.081 35.8173 361.633 35.7168C359.851 36.5026 358.069 37.2884 356.287 38.0742C357.286 39.121 358.286 40.1679 359.285 41.2148C357.865 40.8105 356.35 42.5043 356.91 43.8711C357.135 44.3025 357.462 44.6728 357.862 44.9498C358.263 45.2269 358.724 45.4025 359.207 45.4615C360.812 45.7738 359.595 47.3013 361.23 47.2715C362.865 47.2418 374.265 43.8905 375.06 45.3195C375.626 46.337 375.564 47.6849 376.372 48.5232C377.406 49.5958 379.211 49.2036 380.527 48.5053C381.843 47.807 383.178 46.8473 384.658 47.0148C386.203 47.1895 387.372 50.0455 387.753 51.5536C388.134 53.0617 387.893 54.6484 387.651 56.1849C387.333 58.2026 384.147 60.2204 383.829 62.2381C387.364 63.2158 391.157 60.1051 392.554 54.6956C392.415 51.2759 394.738 47.973 392.302 45.5693Z" fill="#2F2E41"/>
<path d="M167.362 233.488C124.767 233.49 87.7069 201.715 82.2319 158.376L83.2784 158.244C88.6856 201.048 125.295 232.431 167.363 232.434C170.937 232.434 174.508 232.208 178.054 231.759C224.452 225.898 257.431 183.382 251.569 136.984L252.616 136.851C258.55 183.826 225.161 226.871 178.186 232.805C174.596 233.26 170.981 233.488 167.362 233.488Z" fill="#C0C0C0"/>
<path d="M169.649 251.127H152.878C152.52 251.128 152.166 251.047 151.843 250.892C151.52 250.736 151.237 250.51 151.014 250.229C150.794 249.956 150.639 249.636 150.56 249.294C150.481 248.952 150.481 248.596 150.559 248.254C152.15 241.23 152.056 233.93 150.285 226.949C150.164 226.467 150.198 225.959 150.383 225.497C150.568 225.036 150.893 224.645 151.314 224.379C157.116 220.785 163.433 220.897 170.629 224.723C170.956 224.895 171.239 225.141 171.456 225.44C171.672 225.74 171.817 226.085 171.878 226.45C173.069 233.945 173.111 241.578 172.001 249.085C171.922 249.653 171.641 250.172 171.208 250.547C170.776 250.923 170.222 251.129 169.649 251.127Z" fill="#0F90DF"/>
<path d="M93.1859 161.48H76.4147C76.0564 161.481 75.7025 161.4 75.3797 161.245C75.0569 161.089 74.7735 160.863 74.5507 160.582C74.3307 160.309 74.1754 159.989 74.0966 159.647C74.0178 159.305 74.0175 158.949 74.0957 158.607C75.693 151.559 75.5927 144.232 73.803 137.231C73.6898 136.77 73.7171 136.285 73.8816 135.84C74.046 135.395 74.3399 135.009 74.7256 134.732C83.3493 128.53 90.1408 128.71 94.9116 135.268C95.1266 135.567 95.2695 135.912 95.329 136.275C96.6037 143.938 96.6742 151.753 95.538 159.438C95.4591 160.006 95.1773 160.525 94.7448 160.9C94.3124 161.276 93.7585 161.482 93.1859 161.48Z" fill="#CCCCCC"/>
<path d="M161.813 235.387H156.044C155.726 235.386 155.42 235.259 155.195 235.033C154.97 234.808 154.844 234.502 154.844 234.184C154.844 233.865 154.97 233.559 155.195 233.334C155.42 233.108 155.726 232.981 156.044 232.981H161.813C162.132 232.981 162.438 233.107 162.664 233.333C162.89 233.559 163.016 233.865 163.016 234.184C163.016 234.503 162.89 234.809 162.664 235.034C162.438 235.26 162.132 235.387 161.813 235.387Z" fill="white"/>
<path d="M168.868 240.14H156.044C155.726 240.139 155.42 240.012 155.195 239.786C154.97 239.561 154.844 239.255 154.844 238.937C154.844 238.618 154.97 238.312 155.195 238.087C155.42 237.861 155.726 237.734 156.044 237.734H168.868C169.186 237.734 169.492 237.861 169.717 238.087C169.942 238.312 170.068 238.618 170.068 238.937C170.068 239.255 169.942 239.561 169.717 239.786C169.492 240.012 169.186 240.139 168.868 240.14Z" fill="white"/>
<path d="M87.9863 144.685H82.217C81.8984 144.684 81.5931 144.557 81.368 144.332C81.143 144.106 81.0166 143.801 81.0166 143.482C81.0166 143.163 81.143 142.858 81.368 142.632C81.5931 142.407 81.8984 142.28 82.217 142.279H87.9863C88.3049 142.28 88.6102 142.407 88.8353 142.632C89.0603 142.858 89.1867 143.163 89.1867 143.482C89.1867 143.801 89.0603 144.106 88.8353 144.332C88.6102 144.557 88.3049 144.684 87.9863 144.685Z" fill="white"/>
<path d="M87.9863 148.903H82.217C81.8984 148.903 81.5931 148.776 81.368 148.55C81.143 148.325 81.0166 148.019 81.0166 147.701C81.0166 147.382 81.143 147.076 81.368 146.851C81.5931 146.625 81.8984 146.498 82.217 146.498H87.9863C88.3049 146.498 88.6102 146.625 88.8353 146.851C89.0603 147.076 89.1867 147.382 89.1867 147.701C89.1867 148.019 89.0603 148.325 88.8353 148.55C88.6102 148.776 88.3049 148.903 87.9863 148.903Z" fill="white"/>
<path d="M87.9863 153.122H82.217C81.8984 153.122 81.5931 152.995 81.368 152.769C81.143 152.544 81.0166 152.238 81.0166 151.919C81.0166 151.601 81.143 151.295 81.368 151.07C81.5931 150.844 81.8984 150.717 82.217 150.716H87.9863C88.3049 150.717 88.6102 150.844 88.8353 151.07C89.0603 151.295 89.1867 151.601 89.1867 151.919C89.1867 152.238 89.0603 152.544 88.8353 152.769C88.6102 152.995 88.3049 153.122 87.9863 153.122Z" fill="white"/>
<path opacity="0.37" d="M318.907 181.294H265.296C263.859 181.292 262.481 180.72 261.466 179.705C260.45 178.689 259.878 177.311 259.876 175.874V142.855C259.878 141.418 260.45 140.04 261.466 139.024C262.481 138.008 263.859 137.437 265.296 137.435H318.907C320.344 137.437 321.722 138.008 322.738 139.024C323.754 140.04 324.325 141.418 324.327 142.855V175.874C324.325 177.311 323.754 178.689 322.738 179.705C321.722 180.72 320.344 181.292 318.907 181.294Z" fill="#497AD4"/>
<path d="M297.681 176.801H269.139C267.793 176.8 266.503 176.264 265.551 175.313C264.6 174.361 264.065 173.071 264.063 171.726V146.524C264.065 145.179 264.6 143.889 265.551 142.937C266.503 141.986 267.793 141.45 269.139 141.449H315.213C316.559 141.45 317.849 141.986 318.8 142.937C319.752 143.889 320.287 145.179 320.289 146.524V154.194C320.282 160.187 317.898 165.934 313.659 170.172C309.421 174.41 303.675 176.794 297.681 176.801Z" fill="#D0CDE1"/>
<path d="M310.543 155.488H273.661C273.342 155.488 273.036 155.361 272.81 155.136C272.585 154.91 272.458 154.604 272.458 154.285C272.458 153.966 272.585 153.66 272.81 153.435C273.036 153.209 273.342 153.082 273.661 153.082H310.543C310.862 153.082 311.168 153.209 311.394 153.435C311.619 153.66 311.746 153.966 311.746 154.285C311.746 154.604 311.619 154.91 311.394 155.136C311.168 155.361 310.862 155.488 310.543 155.488Z" fill="#0F90DF"/>
<path d="M279.43 160.241H273.66C273.342 160.24 273.036 160.113 272.811 159.888C272.586 159.662 272.46 159.357 272.46 159.038C272.46 158.72 272.586 158.414 272.811 158.188C273.036 157.963 273.342 157.836 273.66 157.835H279.43C279.748 157.836 280.054 157.963 280.279 158.188C280.504 158.414 280.63 158.72 280.63 159.038C280.63 159.357 280.504 159.662 280.279 159.888C280.054 160.113 279.748 160.24 279.43 160.241Z" fill="#0F90DF"/>
<path d="M289.648 164.994H273.661C273.342 164.994 273.036 164.867 272.81 164.642C272.585 164.416 272.458 164.11 272.458 163.791C272.458 163.472 272.585 163.166 272.81 162.941C273.036 162.715 273.342 162.588 273.661 162.588H289.648C289.967 162.588 290.273 162.715 290.499 162.941C290.725 163.166 290.851 163.472 290.851 163.791C290.851 164.11 290.725 164.416 290.499 164.642C290.273 164.867 289.967 164.994 289.648 164.994Z" fill="#0F90DF"/>
<path d="M258.006 148.119C264.269 148.119 269.346 143.041 269.346 136.778C269.346 130.514 264.269 125.437 258.006 125.437C251.742 125.437 246.665 130.514 246.665 136.778C246.665 143.041 251.742 148.119 258.006 148.119Z" fill="#3F3D56"/>
<path d="M129.626 50.5061C130.377 46.6954 131.871 43.0698 134.023 39.8365C136.175 36.6031 138.942 33.8253 142.168 31.6615C148.682 27.2917 156.665 25.6885 164.361 27.2048C168.172 27.9555 171.798 29.4495 175.031 31.6014C178.264 33.7534 181.042 36.5211 183.206 39.7466C185.37 42.972 186.877 46.5921 187.642 50.4001C188.406 54.208 188.413 58.1294 187.663 61.9401L186.628 61.7363C188.09 54.3147 186.544 46.6162 182.33 40.3344C178.116 34.0526 171.579 29.702 164.157 28.2399C156.736 26.7777 149.037 28.3236 142.756 32.5376C136.474 36.7515 132.123 43.2883 130.661 50.71L129.626 50.5061Z" fill="#C0C0C0"/>
<path d="M140.857 69.1656L124.1 69.8596C123.742 69.8752 123.385 69.8095 123.056 69.6675C122.727 69.5255 122.435 69.3109 122.201 69.0397C121.969 68.7755 121.801 68.4624 121.708 68.1239C121.615 67.7853 121.6 67.4302 121.664 67.085C122.95 60.0731 122.575 52.8574 120.57 46.0165C120.415 45.4933 120.447 44.9326 120.659 44.43C120.871 43.9274 121.251 43.514 121.734 43.2603C128.598 39.6943 135.029 39.5135 140.848 42.7222C141.153 42.8879 141.418 43.1181 141.625 43.3968C141.832 43.6755 141.976 43.996 142.046 44.3358C143.561 51.8008 143.924 59.4536 143.123 67.0284C143.067 67.5983 142.807 68.1289 142.391 68.5218C141.974 68.9148 141.429 69.1435 140.857 69.1656Z" fill="#0F90DF"/>
<path d="M140.147 58.1982L127.335 58.7289C127.177 58.7356 127.019 58.7111 126.871 58.6568C126.722 58.6025 126.586 58.5195 126.47 58.4125C126.353 58.3055 126.259 58.1766 126.193 58.0332C126.126 57.8899 126.089 57.7348 126.082 57.5769C126.076 57.4189 126.1 57.2613 126.155 57.1129C126.209 56.9645 126.292 56.8283 126.399 56.712C126.506 56.5958 126.635 56.5018 126.779 56.4354C126.922 56.369 127.077 56.3316 127.235 56.3252L140.048 55.7945C140.206 55.788 140.363 55.8126 140.511 55.8669C140.66 55.9213 140.796 56.0043 140.912 56.1113C141.028 56.2183 141.122 56.3471 141.189 56.4904C141.255 56.6338 141.293 56.7888 141.299 56.9466C141.306 57.1044 141.281 57.262 141.227 57.4103C141.173 57.5586 141.09 57.6948 140.983 57.811C140.876 57.9272 140.747 58.0213 140.603 58.0877C140.46 58.1541 140.305 58.1917 140.147 58.1982Z" fill="white"/>
<path d="M139.973 53.9832L127.16 54.5138C126.842 54.527 126.531 54.4131 126.296 54.197C126.061 53.9809 125.922 53.6805 125.909 53.3617C125.896 53.043 126.01 52.732 126.226 52.4973C126.442 52.2626 126.742 52.1233 127.061 52.1101L139.873 51.5794C140.192 51.5662 140.503 51.6802 140.738 51.8962C140.973 52.1123 141.112 52.4127 141.125 52.7315C141.138 53.0503 141.024 53.3612 140.808 53.5959C140.592 53.8307 140.292 53.97 139.973 53.9832Z" fill="white"/>
<path opacity="0.37" d="M250.52 63.8583H196.909C195.472 63.8567 194.094 63.2852 193.078 62.2692C192.062 61.2533 191.491 59.8758 191.489 58.439V25.4193C191.491 23.9825 192.062 22.605 193.078 21.5891C194.094 20.5731 195.472 20.0016 196.909 20H250.52C251.957 20.0016 253.334 20.5731 254.35 21.5891C255.366 22.605 255.938 23.9825 255.939 25.4193V58.439C255.938 59.8758 255.366 61.2533 254.35 62.2692C253.334 63.2852 251.957 63.8567 250.52 63.8583Z" fill="#497AD4"/>
<path d="M229.121 59.2698H200.579C199.233 59.2683 197.943 58.7331 196.991 57.7816C196.04 56.8301 195.504 55.5401 195.503 54.1944V28.9931C195.504 27.6474 196.04 26.3574 196.991 25.4059C197.943 24.4544 199.233 23.9192 200.579 23.9177H246.653C247.999 23.9192 249.289 24.4544 250.24 25.4059C251.192 26.3574 251.727 27.6475 251.729 28.9931V36.6623C251.722 42.6562 249.338 48.4025 245.099 52.6408C240.861 56.879 235.115 59.263 229.121 59.2698Z" fill="#D0CDE1"/>
<path d="M242.155 38.0528H205.273C204.954 38.0528 204.648 37.9261 204.423 37.7005C204.197 37.4749 204.07 37.169 204.07 36.8499C204.07 36.5309 204.197 36.225 204.423 35.9994C204.648 35.7738 204.954 35.6471 205.273 35.6471H242.155C242.474 35.6471 242.78 35.7738 243.006 35.9994C243.231 36.225 243.358 36.5309 243.358 36.8499C243.358 37.169 243.231 37.4749 243.006 37.7005C242.78 37.9261 242.474 38.0528 242.155 38.0528Z" fill="#0F90DF"/>
<path d="M211.042 42.8058H205.273C204.955 42.8052 204.649 42.6781 204.424 42.4526C204.199 42.2271 204.073 41.9215 204.073 41.6029C204.073 41.2843 204.199 40.9788 204.424 40.7532C204.649 40.5277 204.955 40.4007 205.273 40.4H211.042C211.361 40.4007 211.666 40.5277 211.891 40.7532C212.116 40.9788 212.243 41.2843 212.243 41.6029C212.243 41.9215 212.116 42.2271 211.891 42.4526C211.666 42.6781 211.361 42.8052 211.042 42.8058Z" fill="#0F90DF"/>
<path d="M221.261 47.5589H205.273C204.954 47.5589 204.648 47.4322 204.423 47.2066C204.197 46.981 204.07 46.675 204.07 46.356C204.07 46.037 204.197 45.731 204.423 45.5054C204.648 45.2798 204.954 45.1531 205.273 45.1531H221.261C221.579 45.1537 221.885 45.2808 222.11 45.5063C222.335 45.7318 222.461 46.0374 222.461 46.356C222.461 46.6746 222.335 46.9802 222.11 47.2057C221.885 47.4312 221.579 47.5582 221.261 47.5589Z" fill="#0F90DF"/>
<path d="M197.861 69.5744C201.168 64.255 199.536 57.2621 194.217 53.9555C188.897 50.6488 181.904 52.2805 178.598 57.6C175.291 62.9194 176.923 69.9123 182.242 73.2189C187.562 76.5256 194.554 74.8939 197.861 69.5744Z" fill="#3F3D56"/>
<path d="M442.813 330H287.001C286.872 330 286.749 329.949 286.658 329.858C286.567 329.767 286.516 329.644 286.516 329.515C286.516 329.387 286.567 329.263 286.658 329.172C286.749 329.081 286.872 329.03 287.001 329.03H442.813C442.942 329.03 443.065 329.081 443.156 329.172C443.247 329.263 443.298 329.387 443.298 329.515C443.298 329.644 443.247 329.767 443.156 329.858C443.065 329.949 442.942 330 442.813 330Z" fill="#CCCCCC"/>
<path d="M37.1531 152.06C32.5002 139.76 32.9241 126.115 38.3317 114.127C43.7392 102.14 53.6874 92.7908 65.9878 88.1379C78.2882 83.4849 91.9331 83.9089 103.921 89.3164C115.909 94.724 125.257 104.672 129.91 116.973L128.924 117.346C126.669 111.385 123.262 105.926 118.898 101.282C114.533 96.6379 109.297 92.8987 103.487 90.2781C97.6778 87.6575 91.409 86.2068 85.0389 86.0089C78.6688 85.811 72.3221 86.8697 66.3612 89.1246C60.4002 91.3794 54.9417 94.7863 50.2975 99.1507C45.6532 103.515 41.914 108.752 39.2934 114.561C36.6728 120.37 35.2221 126.639 35.0242 133.009C34.8263 139.379 35.885 145.726 38.1398 151.687L37.1531 152.06Z" fill="#C0C0C0"/>
<path d="M80.5297 102.946H63.7585C63.4002 102.946 63.0463 102.866 62.7235 102.711C62.4007 102.555 62.1173 102.328 61.8945 102.048C61.6745 101.774 61.5192 101.455 61.4404 101.112C61.3616 100.77 61.3613 100.415 61.4395 100.073C63.0272 93.0654 62.9374 85.7822 61.1774 78.8162C61.0526 78.3233 61.0909 77.8031 61.2865 77.3338C61.4821 76.8644 61.8245 76.471 62.2625 76.2125C68.3377 72.6762 74.8253 72.7841 81.5447 76.5341C81.8628 76.7076 82.1371 76.9514 82.3467 77.247C82.5562 77.5426 82.6955 77.8821 82.7539 78.2397C83.9499 85.744 83.993 93.3868 82.8819 100.904C82.8029 101.471 82.5211 101.991 82.0886 102.366C81.6562 102.741 81.1023 102.947 80.5297 102.946Z" fill="#0F90DF"/>
<path d="M72.6938 86.678H66.9245C66.6059 86.6774 66.3006 86.5503 66.0756 86.3248C65.8505 86.0993 65.7241 85.7937 65.7241 85.4751C65.7241 85.1565 65.8505 84.8509 66.0756 84.6254C66.3006 84.3999 66.6059 84.2729 66.9245 84.2722H72.6938C73.0124 84.2729 73.3177 84.3999 73.5428 84.6254C73.7678 84.8509 73.8942 85.1565 73.8942 85.4751C73.8942 85.7937 73.7678 86.0993 73.5428 86.3248C73.3177 86.5503 73.0124 86.6774 72.6938 86.678Z" fill="white"/>
<path d="M79.7481 91.4311H66.9246C66.6056 91.4311 66.2996 91.3044 66.074 91.0788C65.8484 90.8532 65.7217 90.5472 65.7217 90.2282C65.7217 89.9092 65.8484 89.6032 66.074 89.3776C66.2996 89.152 66.6056 89.0253 66.9246 89.0253H79.7481C80.0667 89.0259 80.372 89.153 80.597 89.3785C80.8221 89.604 80.9485 89.9096 80.9485 90.2282C80.9485 90.5468 80.8221 90.8524 80.597 91.0779C80.372 91.3034 80.0667 91.4304 79.7481 91.4311Z" fill="white"/>
<path d="M46.5154 156.057C49.822 150.738 48.1903 143.745 42.8709 140.438C37.5514 137.132 30.5585 138.763 27.2519 144.083C23.9452 149.402 25.5769 156.395 30.8964 159.702C36.2158 163.009 43.2087 161.377 46.5154 156.057Z" fill="#3F3D56"/>
<path d="M138.009 134.586H121.238C120.88 134.587 120.526 134.506 120.203 134.351C119.88 134.195 119.597 133.969 119.374 133.688C119.154 133.414 118.999 133.095 118.92 132.753C118.841 132.41 118.841 132.055 118.919 131.713C120.504 124.718 120.417 117.448 118.666 110.493C118.542 109.993 118.584 109.466 118.786 108.992C118.988 108.519 119.339 108.124 119.786 107.868C127.933 103.204 134.384 103.333 139.508 108.261C139.868 108.613 140.104 109.071 140.183 109.567C141.428 117.171 141.488 124.922 140.361 132.544C140.282 133.111 140.001 133.631 139.568 134.006C139.136 134.381 138.582 134.587 138.009 134.586Z" fill="#FF6584"/>
<path d="M131.228 118.845H125.459C125.14 118.845 124.835 118.718 124.61 118.492C124.385 118.267 124.258 117.961 124.258 117.642C124.258 117.324 124.385 117.018 124.61 116.793C124.835 116.567 125.14 116.44 125.459 116.44H131.228C131.547 116.44 131.852 116.567 132.077 116.793C132.302 117.018 132.428 117.324 132.428 117.642C132.428 117.961 132.302 118.267 132.077 118.492C131.852 118.718 131.547 118.845 131.228 118.845Z" fill="white"/>
<path d="M138.282 123.599H125.459C125.14 123.599 124.834 123.472 124.608 123.246C124.383 123.021 124.256 122.715 124.256 122.396C124.256 122.077 124.383 121.771 124.608 121.545C124.834 121.319 125.14 121.193 125.459 121.193H138.282C138.601 121.193 138.906 121.32 139.131 121.546C139.356 121.771 139.483 122.077 139.483 122.396C139.483 122.714 139.356 123.02 139.131 123.245C138.906 123.471 138.601 123.598 138.282 123.599Z" fill="white"/>
</svg>
